<svg width="24" height="24" viewBox="0 0 24 24" fill="none" xmlns="http://www.w3.org/2000/svg">
<path d="M21 8.99106C21 7.92947 20.5774 6.91135 19.8253 6.16069C19.0731 5.41003 18.053 4.98831 16.9893 4.98831C16.6188 4.99358 16.2509 5.05085 15.8964 5.15843C15.703 4.26407 15.2085 3.46283 14.4951 2.88814C13.7818 2.31345 12.8927 2 11.976 2C11.0592 2 10.1701 2.31345 9.45679 2.88814C8.74345 3.46283 8.24891 4.26407 8.05553 5.15843C7.70102 5.05085 7.33311 4.99358 6.96262 4.98831C5.99493 4.99989 5.06408 5.36027 4.34172 6.00301C3.61936 6.64574 3.15422 7.52747 3.03208 8.48559C2.90994 9.44371 3.13904 10.4136 3.67713 11.2164C4.21521 12.0191 5.026 12.6007 5.95995 12.8537V22H17.992V12.8537C18.8508 12.6324 19.6118 12.1333 20.1561 11.4344C20.7003 10.7355 20.9971 9.87623 21 8.99106V8.99106Z" stroke="#939397" stroke-width="2" stroke-linecap="round" stroke-linejoin="round"/>
<path d="M18 18H6" stroke="#939397" stroke-width="2" stroke-linecap="round" stroke-linejoin="round"/>
<path d="M8.13015 7C8.04088 6.67426 7.99713 6.33773 8.00015 6C8.00015 4.93913 8.42157 3.92172 9.17172 3.17157C9.92186 2.42143 10.9393 2 12.0001 2C13.061 2 14.0784 2.42143 14.8286 3.17157C15.5787 3.92172 16.0001 4.93913 16.0001 6C16.0032 6.33773 15.9594 6.67426 15.8701 7" stroke="#939397" stroke-width="2" stroke-linecap="round" stroke-linejoin="round"/>
</svg>
