<svg width="152" height="108" viewBox="0 0 152 108" fill="none" xmlns="http://www.w3.org/2000/svg">
<ellipse cx="130.671" cy="27.9999" rx="5.00662" ry="5" fill="#EAF7EE"/>
<ellipse cx="125.666" cy="56.9999" rx="3.00397" ry="3" fill="#EAF7EE"/>
<ellipse cx="30.5399" cy="21" rx="3.00397" ry="3" fill="#EAF7EE"/>
<ellipse cx="64.5848" cy="105" rx="3.00397" ry="3" fill="#CDEAD6"/>
<ellipse cx="3.50397" cy="71.0002" rx="3.00397" ry="3" fill="#CDEAD6"/>
<ellipse cx="18.5242" cy="50" rx="4.0053" ry="4" fill="#CDEAD6"/>
<ellipse cx="104.638" cy="102" rx="4.0053" ry="4" fill="#EAF7EE"/>
<ellipse cx="81.6073" cy="4" rx="4.00529" ry="4" fill="#EAF7EE"/>
<ellipse cx="108.643" cy="15" rx="3.00397" ry="3" fill="#EAF7EE"/>
<ellipse cx="32.5426" cy="86.9999" rx="5.00662" ry="5" fill="#EAF7EE"/>
<circle cx="50.5" cy="7.99976" r="5" fill="#CDEAD6"/>
<ellipse cx="122.662" cy="80.9999" rx="5.00662" ry="5" fill="#CDEAD6"/>
<circle cx="148" cy="50.4998" r="3.5" fill="#CDEAD6"/>
<ellipse cx="77.6019" cy="55.0001" rx="40.053" ry="40" fill="#EAF7EE"/>
<rect width="47.3028" height="47.2402" transform="translate(53.7159 31.2124)" fill="white" fill-opacity="0.01"/>
<path d="M91.1639 52.8642H63.5706V72.5476H91.1639V52.8642Z" stroke="#86D29F" stroke-width="4" stroke-linecap="round"/>
<path d="M77.3673 37.1174C82.8099 37.1174 87.222 41.5237 87.222 46.9591V52.8642H67.5125V46.9591C67.5125 41.5237 71.9246 37.1174 77.3673 37.1174Z" stroke="#86D29F" stroke-width="4" stroke-linecap="round"/>
<path d="M77.3673 64.6742C78.4558 64.6742 79.3382 63.793 79.3382 62.7059C79.3382 61.6188 78.4558 60.7375 77.3673 60.7375C76.2787 60.7375 75.3963 61.6188 75.3963 62.7059C75.3963 63.793 76.2787 64.6742 77.3673 64.6742Z" stroke="#86D29F" stroke-width="4" stroke-linecap="round"/>
</svg>
