<svg width="152" height="108" viewBox="0 0 152 108" fill="none" xmlns="http://www.w3.org/2000/svg">
<ellipse cx="130.672" cy="27.9999" rx="5.00662" ry="5" fill="#EAF7EE"/>
<ellipse cx="125.666" cy="57" rx="3.00397" ry="3" fill="#EAF7EE"/>
<ellipse cx="30.5401" cy="21" rx="3.00397" ry="3" fill="#EAF7EE"/>
<ellipse cx="64.585" cy="105" rx="3.00397" ry="3" fill="#CDEAD6"/>
<ellipse cx="3.50397" cy="71.0002" rx="3.00397" ry="3" fill="#CDEAD6"/>
<ellipse cx="18.5238" cy="50" rx="4.0053" ry="4" fill="#CDEAD6"/>
<ellipse cx="104.637" cy="102" rx="4.0053" ry="4" fill="#EAF7EE"/>
<ellipse cx="81.6078" cy="4" rx="4.00529" ry="4" fill="#EAF7EE"/>
<ellipse cx="108.643" cy="15" rx="3.00397" ry="3" fill="#EAF7EE"/>
<ellipse cx="32.5428" cy="87" rx="5.00662" ry="5" fill="#EAF7EE"/>
<circle cx="50.5" cy="7.99976" r="5" fill="#CDEAD6"/>
<ellipse cx="122.662" cy="81" rx="5.00662" ry="5" fill="#CDEAD6"/>
<circle cx="148" cy="50.4998" r="3.5" fill="#CDEAD6"/>
<ellipse cx="77.6018" cy="55.0001" rx="40.053" ry="40" fill="#EAF7EE"/>
<rect width="47.3028" height="47.2402" transform="translate(53.7158 31.2124)" fill="white" fill-opacity="0.01"/>
<path d="M67.5129 72.5476H87.2224M65.542 35.149H89.1934V52.8641C89.1934 59.3867 83.8988 64.6742 77.3677 64.6742C70.8365 64.6742 65.542 59.3867 65.542 52.8641V35.149Z" stroke="#86D29F" stroke-width="4" stroke-linecap="round"/>
<path d="M77.3672 64.6742V72.5476" stroke="#86D29F" stroke-width="4" stroke-linecap="round"/>
<path d="M65.542 41.0541V52.8641H63.5711C60.3055 52.8641 57.6582 50.2204 57.6582 46.9591C57.6582 43.6978 60.3055 41.0541 63.5711 41.0541H65.542ZM89.1934 52.8641V41.0541H91.1643C94.4299 41.0541 97.0772 43.6978 97.0772 46.9591C97.0772 50.2204 94.4299 52.8641 91.1643 52.8641H89.1934Z" stroke="#86D29F" stroke-width="4" stroke-linecap="round"/>
</svg>
