<svg width="24" height="24" viewBox="0 0 24 24" fill="none" xmlns="http://www.w3.org/2000/svg">
<path fill-rule="evenodd" clip-rule="evenodd" d="M12.2362 15.4788L10.8768 10.1082L20.604 7.65695L22.5093 15.256L13.0941 17.5958C12.9574 16.8385 12.6653 16.1176 12.2362 15.4788ZM4.4366 7.15554L6.50906 6.60957L8.18039 13.0832C9.08004 13.1621 9.94569 13.4647 10.6985 13.9635L7.62328 1.74041C7.43028 1.19878 6.85682 0.892962 6.29951 1.03446C5.7422 1.17595 5.38409 1.71828 5.47283 2.28638L6.00765 4.44798L3.84606 4.99395C3.24945 5.14204 2.88548 5.74533 3.03267 6.34216C3.10366 6.63114 3.28728 6.87972 3.54262 7.03251C3.79797 7.1853 4.10382 7.2296 4.39203 7.15554H4.4366ZM19.5901 17.1167L13.1944 18.7212C13.1685 19.5818 12.9435 20.4246 12.537 21.1836L20.1026 19.2783C20.3895 19.2049 20.6354 19.0202 20.7859 18.7652C20.9365 18.5101 20.9792 18.2056 20.9048 17.919C20.8314 17.632 20.6468 17.3862 20.3917 17.2356C20.1367 17.0851 19.8322 17.0423 19.5455 17.1167H19.5901ZM12.0802 18.5986C12.0802 21.0601 10.0848 23.0555 7.62328 23.0555C5.1618 23.0555 3.16638 21.0601 3.16638 18.5986C3.16638 16.1372 5.1618 14.1417 7.62328 14.1417C8.80532 14.1417 9.93895 14.6113 10.7748 15.4471C11.6106 16.283 12.0802 17.4166 12.0802 18.5986ZM9.85173 18.5986C9.85173 17.3679 8.85402 16.3702 7.62328 16.3702C6.39254 16.3702 5.39483 17.3679 5.39483 18.5986C5.39483 19.8294 6.39254 20.8271 7.62328 20.8271C8.85402 20.8271 9.85173 19.8294 9.85173 18.5986Z" fill="#D7D8E0"/>
</svg>
