<svg width="152" height="108" viewBox="0 0 152 108" fill="none" xmlns="http://www.w3.org/2000/svg">
<ellipse cx="130.671" cy="28" rx="5.00662" ry="5" fill="#EAF7EE"/>
<ellipse cx="125.666" cy="57" rx="3.00397" ry="3" fill="#EAF7EE"/>
<ellipse cx="30.54" cy="21" rx="3.00397" ry="3" fill="#EAF7EE"/>
<ellipse cx="64.5848" cy="105" rx="3.00397" ry="3" fill="#CDEAD6"/>
<ellipse cx="3.50397" cy="71" rx="3.00397" ry="3" fill="#CDEAD6"/>
<ellipse cx="18.5241" cy="50" rx="4.0053" ry="4" fill="#CDEAD6"/>
<ellipse cx="104.638" cy="102" rx="4.0053" ry="4" fill="#EAF7EE"/>
<ellipse cx="81.6073" cy="4" rx="4.00529" ry="4" fill="#EAF7EE"/>
<ellipse cx="108.643" cy="15" rx="3.00397" ry="3" fill="#EAF7EE"/>
<ellipse cx="32.5426" cy="87" rx="5.00662" ry="5" fill="#EAF7EE"/>
<circle cx="50.5" cy="8" r="5" fill="#CDEAD6"/>
<ellipse cx="122.662" cy="81" rx="5.00662" ry="5" fill="#CDEAD6"/>
<circle cx="148" cy="50.5" r="3.5" fill="#CDEAD6"/>
<ellipse cx="77.6019" cy="55" rx="40.053" ry="40" fill="#EAF7EE"/>
<rect width="47.3028" height="47.2402" transform="translate(53.7158 31.2129)" fill="white" fill-opacity="0.01"/>
<path d="M67.5125 72.5489H87.2219M65.5415 35.1504H89.1929V52.8655C89.1929 59.388 83.8984 64.6755 77.3672 64.6755C70.836 64.6755 65.5415 59.388 65.5415 52.8655V35.1504Z" stroke="#86D29F" stroke-width="4" stroke-linecap="round"/>
<path d="M77.3672 64.6738V72.5472" stroke="#86D29F" stroke-width="4" stroke-linecap="round"/>
<path d="M65.5415 41.0547V52.8647H63.5706C60.305 52.8647 57.6577 50.221 57.6577 46.9597C57.6577 43.6985 60.305 41.0547 63.5706 41.0547H65.5415ZM89.1929 52.8647V41.0547H91.1639C94.4294 41.0547 97.0767 43.6985 97.0767 46.9597C97.0767 50.221 94.4294 52.8647 91.1639 52.8647H89.1929Z" stroke="#86D29F" stroke-width="4" stroke-linecap="round"/>
</svg>
