<svg width="200" height="80" viewBox="0 0 200 80" fill="none" xmlns="http://www.w3.org/2000/svg">
<path d="M155.117 42.2371C155.139 43.6917 154.496 45.0619 153.34 46.2411C153.254 46.3296 153.206 46.3911 153.122 46.4766C153.053 46.5401 152.95 46.6385 152.877 46.6995C152.805 46.7605 152.731 46.821 152.656 46.8785C152.567 46.9545 152.477 47.0284 152.388 47.0964C152.257 47.1964 152.124 47.2904 151.989 47.3834C150.497 48.3986 148.671 48.978 146.888 48.9985C144.487 48.9998 142.183 48.0606 140.477 46.3855C138.771 44.7104 137.802 42.435 137.781 40.0551C139.437 42.5545 142.45 42.3735 145.691 42.3735C149.277 42.3735 152.226 42.1876 153.768 39.2378C154.186 39.5861 154.525 40.0188 154.761 40.507C154.812 40.6233 154.857 40.7421 154.896 40.8629C154.935 40.9784 154.969 41.0759 154.997 41.2003C155.025 41.3248 155.041 41.4378 155.059 41.5542C155.077 41.6707 155.089 41.7857 155.097 41.8992C155.106 42.0126 155.115 42.1251 155.117 42.2371Z" fill="url(#paint0_linear)"/>
<path d="M152.266 33.3022C151.709 33.1104 151.142 32.9504 150.567 32.8228L150.522 32.8143C148.89 32.5039 147.225 32.5859 145.64 33.1958C145.524 33.2437 145.409 33.2951 145.296 33.3497C143.943 33.9996 142.847 35.1138 142.341 36.7239C142.307 36.8444 142.278 36.9644 142.252 37.0843C142.086 37.8726 142.089 38.6914 142.296 39.4428C141.927 38.0876 141.876 36.6666 142.147 35.2888C142.418 33.911 143.004 32.6131 143.86 31.4947C144.017 31.4363 144.178 31.3862 144.341 31.3447C144.341 31.3412 144.566 31.2842 144.568 31.2812L144.753 31.2382C145.369 31.0987 145.997 31.0198 146.629 31.0028C148.539 30.9498 150.773 31.6576 152.429 32.9333C152.757 33.1844 153.063 33.4619 153.345 33.7631L153.266 33.7231L153.226 33.7031C153 33.5896 152.767 33.4891 152.529 33.4022C152.514 33.3982 152.283 33.3082 152.266 33.3022Z" fill="url(#paint1_linear)"/>
<path d="M149.881 38.2635C149.754 38.2823 149.628 38.308 149.504 38.3405C147.689 38.8179 146.73 40.6844 145.057 41.2438C144.947 41.2691 144.835 41.2883 144.722 41.3013C144.162 41.3608 143.599 41.2423 143.145 40.8974C143.02 40.8021 142.906 40.6925 142.807 40.571C142.578 40.2239 142.406 39.8431 142.296 39.4427C141.927 38.0876 141.876 36.6665 142.147 35.2887C142.418 33.9109 143.004 32.613 143.86 31.4946C143.198 31.7161 142.572 31.966 141.991 32.3199C140.174 33.4427 138.833 35.1748 138.187 37.2513C137.915 38.1323 137.778 39.0488 137.78 39.9701C137.78 39.9991 137.78 40.0261 137.78 40.0551C138.613 41.3164 139.747 42.3548 141.081 43.0784C142.415 43.8021 143.908 44.1887 145.429 44.2041C145.463 44.2041 145.497 44.2041 145.53 44.2041C147.231 44.2046 148.898 43.7414 150.351 42.8653C151.804 41.9892 152.985 40.7339 153.766 39.2368C152.729 38.363 151.256 38.0186 149.881 38.2635Z" fill="url(#paint2_linear)"/>
<path d="M103.226 38.6767C103.084 38.6773 102.946 38.6237 102.841 38.5267C102.787 38.4781 102.744 38.4184 102.716 38.3515C102.687 38.2847 102.674 38.2124 102.676 38.1398C102.674 38.054 102.668 37.9684 102.658 37.8833C102.632 37.7244 102.596 37.5024 102.547 37.2205C102.403 36.5737 102.078 35.9812 101.61 35.5123C100.899 34.7894 99.87 34.428 98.5233 34.428C97.5555 34.428 96.7926 34.5995 96.2347 34.9424C95.6949 35.2674 95.2585 35.7392 94.9765 36.3026C94.6854 36.8991 94.505 37.5434 94.4441 38.2043C94.3703 38.9092 94.3333 39.6175 94.3331 40.3263C94.3331 40.5723 94.3331 40.8467 94.3436 41.1527C94.3541 41.4586 94.3706 41.7811 94.4081 42.1185C94.4455 42.4609 94.5 42.8013 94.5716 43.1383C94.6451 43.4782 94.75 43.8106 94.885 44.1311C95.4969 45.5308 96.7096 46.2307 98.5233 46.2307C100.287 46.2307 101.5 45.6058 102.162 44.3561C102.282 44.1328 102.382 43.8995 102.462 43.6587C102.525 43.4567 102.575 43.2508 102.611 43.0423C102.644 42.8437 102.666 42.6434 102.676 42.4424C102.675 42.3728 102.689 42.3039 102.718 42.2404C102.746 42.1769 102.788 42.1204 102.841 42.075C102.946 41.9781 103.084 41.9246 103.226 41.925C103.294 41.9234 103.362 41.9356 103.425 41.9608C103.488 41.9861 103.546 42.0239 103.594 42.072C103.642 42.1201 103.68 42.1775 103.705 42.2406C103.73 42.3038 103.742 42.3714 103.741 42.4394C103.741 42.4514 103.741 42.5294 103.732 42.6689C103.72 42.8544 103.696 43.0388 103.658 43.2208C103.615 43.4472 103.552 43.7052 103.466 43.9916C103.374 44.2942 103.251 44.5867 103.099 44.8645C102.746 45.5305 102.225 46.0929 101.589 46.4961C101.184 46.7514 100.745 46.9464 100.284 47.075C99.7094 47.2314 99.1156 47.3056 98.5203 47.2955C97.3075 47.2955 96.3077 47.038 95.5209 46.5231C94.824 46.017 94.2692 45.3399 93.9102 44.557C93.755 44.1922 93.6345 43.8136 93.5503 43.4262C93.4666 43.0505 93.4031 42.6705 93.3598 42.288C93.3178 41.915 93.2938 41.5596 93.2878 41.2217C93.2818 40.8837 93.2788 40.5868 93.2788 40.3308C93.2788 40.0489 93.2818 39.7365 93.2878 39.3935C93.2938 39.0506 93.3148 38.6957 93.3508 38.3287C93.3881 37.9514 93.4487 37.5768 93.5323 37.207C93.6159 36.8286 93.7364 36.4594 93.8922 36.1047C94.07 35.7009 94.3032 35.3238 94.5851 34.9844C94.8541 34.6654 95.1619 34.3813 95.5014 34.1386C96.2862 33.6247 97.291 33.3672 98.5158 33.3662C100.156 33.3662 101.443 33.8321 102.375 34.7639C102.687 35.0821 102.948 35.4481 103.145 35.8482C103.315 36.1889 103.451 36.5456 103.55 36.913C103.624 37.1873 103.674 37.4672 103.7 37.7499C103.718 37.9763 103.727 38.1083 103.727 38.1443V38.1623C103.729 38.2304 103.717 38.2982 103.692 38.3616C103.667 38.4249 103.629 38.4824 103.581 38.5306C103.533 38.5788 103.475 38.6166 103.412 38.6417C103.349 38.6669 103.281 38.6787 103.213 38.6767H103.226Z" fill="#1F8E4E"/>
<path d="M113.477 34.5058H104.766C104.627 34.5043 104.494 34.4489 104.395 34.3513C104.296 34.2537 104.238 34.1215 104.234 33.9824C104.232 33.9118 104.244 33.8416 104.27 33.7759C104.296 33.7102 104.335 33.6503 104.384 33.5999C104.432 33.5488 104.491 33.5083 104.556 33.481C104.62 33.4536 104.69 33.44 104.76 33.441H113.471C113.541 33.44 113.611 33.4536 113.676 33.481C113.74 33.5083 113.799 33.5488 113.847 33.5999C113.897 33.6503 113.935 33.7102 113.961 33.7759C113.987 33.8416 113.999 33.9118 113.997 33.9824C113.993 34.1215 113.936 34.2537 113.836 34.3513C113.737 34.4489 113.604 34.5043 113.465 34.5058H113.477ZM109.095 47.2218C109.024 47.2246 108.953 47.212 108.888 47.1848C108.822 47.1576 108.763 47.1165 108.715 47.0643C108.618 46.9634 108.564 46.8282 108.565 46.6879V35.7925C108.566 35.658 108.62 35.5293 108.715 35.4341C108.764 35.3835 108.823 35.3439 108.889 35.318C108.954 35.2922 109.024 35.2806 109.095 35.2841C109.163 35.2826 109.232 35.2951 109.295 35.3209C109.359 35.3467 109.417 35.3852 109.465 35.4341C109.513 35.4807 109.551 35.5364 109.577 35.598C109.602 35.6596 109.615 35.7257 109.615 35.7925V46.6879C109.617 46.7575 109.604 46.8267 109.578 46.8914C109.553 46.9561 109.514 47.0149 109.465 47.0643C109.418 47.1147 109.36 47.1548 109.296 47.1819C109.233 47.209 109.164 47.2226 109.095 47.2218Z" fill="#1F8E4E"/>
<path d="M125.686 46.7078C125.677 46.846 125.617 46.9759 125.516 47.0713C125.416 47.1667 125.283 47.2206 125.145 47.2222C125.073 47.2255 125.001 47.2103 124.937 47.178C124.872 47.1457 124.818 47.0974 124.777 47.0377L120.992 42.9765H116.563V46.7078C116.563 46.7753 116.548 46.842 116.52 46.9036C116.493 46.9651 116.452 47.02 116.401 47.0647C116.355 47.1137 116.299 47.1529 116.237 47.1799C116.174 47.207 116.108 47.2213 116.04 47.2222C115.971 47.2231 115.902 47.2095 115.838 47.1824C115.774 47.1553 115.717 47.1152 115.67 47.0647C115.622 47.0184 115.584 46.9629 115.558 46.9016C115.532 46.8403 115.519 46.7743 115.52 46.7078V33.9738C115.52 33.8329 115.575 33.6977 115.675 33.5979C115.774 33.4981 115.909 33.4418 116.05 33.4414H120.526C120.563 33.4414 120.697 33.4504 120.929 33.4684C121.22 33.495 121.508 33.5452 121.791 33.6184C122.169 33.7204 122.536 33.8611 122.885 34.0383C123.297 34.2442 123.675 34.514 124.003 34.8376C124.846 35.6705 125.268 36.7912 125.268 38.2C125.287 39.0112 125.14 39.8178 124.834 40.5695C124.589 41.1274 124.222 41.6234 123.76 42.0212C123.707 42.0677 123.644 42.1025 123.576 42.1231C123.508 42.1438 123.436 42.1499 123.366 42.1412C123.229 42.1257 123.102 42.0637 123.006 41.9657C122.959 41.9147 122.924 41.8532 122.905 41.7862C122.886 41.7192 122.883 41.6486 122.897 41.5803C122.917 41.4412 122.982 41.3123 123.081 41.2129C123.84 40.577 124.219 39.5727 124.219 38.2C124.219 37.0722 123.906 36.1964 123.281 35.5725C123.019 35.3052 122.71 35.0899 122.369 34.9381C122.091 34.8162 121.805 34.7159 121.512 34.6382C121.212 34.5887 120.978 34.5527 120.794 34.5287C120.702 34.5167 120.61 34.5102 120.518 34.5092H116.563V41.9117H121.248C121.318 41.9125 121.386 41.9275 121.449 41.9559C121.513 41.9843 121.569 42.0254 121.616 42.0767L125.548 46.3404C125.597 46.3878 125.634 46.4453 125.658 46.5088C125.682 46.5722 125.691 46.6402 125.686 46.7078Z" fill="#1F8E4E"/>
<path d="M127.595 45.6233C127.455 45.625 127.319 45.5711 127.219 45.4733C127.169 45.426 127.13 45.3689 127.105 45.3056C127.079 45.2423 127.066 45.1742 127.069 45.1059V33.9736C127.069 33.8324 127.125 33.697 127.225 33.5971C127.324 33.4973 127.46 33.4412 127.601 33.4412C127.67 33.4389 127.738 33.4511 127.801 33.4769C127.865 33.5027 127.922 33.5417 127.97 33.5912C128.068 33.6919 128.122 33.8272 128.12 33.9676V45.1089C128.122 45.177 128.109 45.2448 128.084 45.308C128.059 45.3713 128.021 45.4287 127.972 45.4769C127.924 45.525 127.867 45.5628 127.803 45.5879C127.74 45.6131 127.672 45.6251 127.604 45.6233H127.595ZM134.582 47.222H127.595C127.525 47.2228 127.455 47.2091 127.39 47.1817C127.325 47.1544 127.267 47.114 127.219 47.063C127.169 47.0123 127.131 46.9521 127.105 46.8862C127.079 46.8203 127.067 46.7499 127.069 46.6791C127.066 46.6098 127.078 46.5409 127.104 46.4766C127.13 46.4123 127.169 46.354 127.219 46.3057C127.268 46.2568 127.327 46.2183 127.392 46.1925C127.456 46.1668 127.525 46.1542 127.595 46.1557H134.582C134.719 46.1563 134.851 46.2101 134.95 46.3057C135.003 46.3519 135.046 46.4093 135.074 46.4738C135.103 46.5384 135.117 46.6084 135.116 46.6791C135.117 46.7512 135.102 46.8226 135.074 46.8888C135.045 46.955 135.003 47.0143 134.95 47.063C134.902 47.1124 134.845 47.1519 134.782 47.1791C134.719 47.2064 134.651 47.221 134.582 47.222Z" fill="#1F8E4E"/>
<path d="M53.2429 34.5062H44.5326C44.4613 34.5081 44.3904 34.4949 44.3245 34.4675C44.2586 34.4401 44.1992 34.3991 44.1502 34.3473C44.102 34.2997 44.0639 34.2429 44.0381 34.1803C44.0123 34.1177 43.9994 34.0506 44.0002 33.9828C43.9982 33.9123 44.0105 33.8421 44.0362 33.7764C44.062 33.7106 44.1008 33.6508 44.1502 33.6004C44.1985 33.5493 44.2569 33.5088 44.3217 33.4815C44.3865 33.4541 44.4563 33.4405 44.5266 33.4415H53.2429C53.3132 33.4405 53.383 33.4541 53.4478 33.4815C53.5126 33.5088 53.571 33.5493 53.6193 33.6004C53.6687 33.6508 53.7075 33.7106 53.7333 33.7764C53.759 33.8421 53.7713 33.9123 53.7693 33.9828C53.7654 34.122 53.7078 34.2542 53.6086 34.3518C53.5093 34.4494 53.3761 34.5047 53.2369 34.5062H53.2429ZM48.8608 47.2223C48.7899 47.2251 48.7192 47.2125 48.6537 47.1853C48.5882 47.1581 48.5294 47.117 48.4813 47.0648C48.4328 47.015 48.3946 46.9561 48.3689 46.8915C48.3432 46.8269 48.3304 46.7579 48.3314 46.6884V35.793C48.3316 35.7263 48.3449 35.6603 48.3706 35.5988C48.3964 35.5373 48.434 35.4815 48.4813 35.4346C48.5302 35.384 48.5894 35.3444 48.6548 35.3185C48.7203 35.2927 48.7905 35.2811 48.8608 35.2846C48.9292 35.2829 48.9973 35.2954 49.0608 35.3212C49.1243 35.347 49.1818 35.3856 49.2297 35.4346C49.2777 35.481 49.3158 35.5367 49.3416 35.5983C49.3673 35.66 49.3803 35.7262 49.3797 35.793V46.6884C49.3815 46.758 49.3692 46.8273 49.3434 46.892C49.3176 46.9567 49.2789 47.0155 49.2297 47.0648C49.1825 47.1153 49.1254 47.1553 49.0618 47.1824C48.9983 47.2096 48.9298 47.2231 48.8608 47.2223Z" fill="#232326"/>
<path d="M59.1744 47.2762C57.4107 47.2762 56.1 46.7373 55.2421 45.6595C54.3113 44.5457 53.8459 42.7695 53.8459 40.331C53.843 39.7606 53.8705 39.1904 53.9284 38.6228C53.9786 38.1411 54.0552 37.6625 54.1579 37.1891C54.3658 36.2573 54.6907 35.5285 55.1327 35.0026C55.593 34.4467 56.1869 34.0169 56.8588 33.7533C57.4727 33.5094 58.2445 33.3869 59.1744 33.3859C59.5989 33.3833 60.0228 33.4169 60.4416 33.4864C60.8118 33.5468 61.1711 33.6615 61.5079 33.8268C62.192 34.1048 62.7887 34.5617 63.2356 35.1495C64.0554 36.2773 64.4658 38.0045 64.4668 40.331C64.4774 41.3445 64.3723 42.3558 64.1534 43.3454C64.0506 43.7576 63.9095 44.1593 63.732 44.5452C63.5671 44.9012 63.3569 45.2344 63.1066 45.5365C62.2248 46.6963 60.914 47.2762 59.1744 47.2762ZM59.1744 34.4522C57.6427 34.4522 56.5649 34.8561 55.941 35.6639C55.2411 36.5838 54.8912 38.1394 54.8912 40.331C54.8735 41.2789 54.9697 42.2255 55.1776 43.1505C55.3267 43.8196 55.6115 44.451 56.0145 45.0056C56.6634 45.8144 57.7166 46.2189 59.1744 46.2189C60.5821 46.2189 61.6294 45.7654 62.3162 44.8586C62.705 44.295 62.9825 43.6623 63.1336 42.9945C63.3369 42.1242 63.4326 41.2322 63.4185 40.3385C63.4185 38.2689 63.0821 36.7622 62.4092 35.8184C61.7344 34.9076 60.6561 34.4522 59.1744 34.4522Z" fill="#232326"/>
<path d="M73.426 34.5063H64.7157C64.5765 34.5048 64.4433 34.4494 64.3441 34.3518C64.2448 34.2543 64.1872 34.122 64.1833 33.9829C64.1813 33.9123 64.1936 33.8421 64.2193 33.7764C64.2451 33.7107 64.2839 33.6508 64.3333 33.6004C64.3815 33.5492 64.4399 33.5086 64.5047 33.4812C64.5695 33.4538 64.6394 33.4403 64.7097 33.4415H73.42C73.4903 33.4405 73.5601 33.4541 73.6249 33.4815C73.6897 33.5088 73.7481 33.5493 73.7964 33.6004C73.8459 33.6508 73.8846 33.7107 73.9104 33.7764C73.9362 33.8421 73.9484 33.9123 73.9464 33.9829C73.9425 34.122 73.8849 34.2543 73.7857 34.3518C73.6864 34.4494 73.5532 34.5048 73.414 34.5063H73.426ZM69.0454 47.2223C68.9745 47.2251 68.9038 47.2125 68.8383 47.1853C68.7728 47.1581 68.714 47.117 68.6659 47.0648C68.6174 47.015 68.5792 46.9561 68.5535 46.8915C68.5278 46.8269 68.515 46.7579 68.516 46.6884V35.793C68.5162 35.7263 68.5295 35.6604 68.5552 35.5989C68.581 35.5374 68.6186 35.4815 68.6659 35.4346C68.7148 35.384 68.774 35.3444 68.8394 35.3185C68.9049 35.2927 68.9751 35.2811 69.0454 35.2846C69.1139 35.283 69.182 35.2954 69.2454 35.3212C69.3089 35.347 69.3664 35.3856 69.4143 35.4346C69.4623 35.481 69.5004 35.5367 69.5262 35.5984C69.552 35.66 69.5649 35.7262 69.5643 35.793V46.6884C69.5661 46.758 69.5538 46.8273 69.528 46.892C69.5022 46.9567 69.4635 47.0155 69.4143 47.0648C69.3671 47.1153 69.31 47.1553 69.2464 47.1825C69.1829 47.2096 69.1144 47.2231 69.0454 47.2223Z" fill="#232326"/>
<path d="M83.3572 46.4872C83.3868 46.5503 83.4021 46.6191 83.4021 46.6889C83.4021 46.7586 83.3868 46.8274 83.3572 46.8906C83.2997 47.0255 83.1922 47.133 83.0573 47.1905C82.9959 47.2208 82.9287 47.2373 82.8603 47.2388C82.7919 47.2404 82.724 47.227 82.6614 47.1995C82.5329 47.1453 82.4307 47.043 82.3764 46.9146L77.6613 35.3518L72.9013 46.9086C72.8561 47.0017 72.7858 47.0803 72.6984 47.1357C72.611 47.1911 72.5098 47.221 72.4064 47.222C72.3368 47.2257 72.2675 47.2129 72.2039 47.1845C72.0689 47.127 71.9615 47.0195 71.9039 46.8846C71.8736 46.8217 71.8579 46.7527 71.8579 46.6829C71.8579 46.613 71.8736 46.5441 71.9039 46.4812L77.1769 33.7472C77.2177 33.6545 77.2846 33.5757 77.3694 33.5203C77.4542 33.465 77.5533 33.4355 77.6546 33.4355C77.7558 33.4355 77.8549 33.465 77.9397 33.5203C78.0246 33.5757 78.0914 33.6545 78.1322 33.7472L83.3572 46.4872ZM79.5165 43.5102H75.7672C75.6307 43.503 75.5022 43.4437 75.4081 43.3445C75.314 43.2453 75.2616 43.1138 75.2616 42.9771C75.2616 42.8404 75.314 42.7089 75.4081 42.6097C75.5022 42.5105 75.6307 42.4512 75.7672 42.4439H79.5165C79.653 42.4512 79.7815 42.5105 79.8756 42.6097C79.9696 42.7089 80.0221 42.8404 80.0221 42.9771C80.0221 43.1138 79.9696 43.2453 79.8756 43.3445C79.7815 43.4437 79.653 43.503 79.5165 43.5102Z" fill="#232326"/>
<path d="M85.413 45.6233C85.2726 45.625 85.1372 45.5711 85.0365 45.4733C84.9856 45.4268 84.9451 45.37 84.918 45.3066C84.8908 45.2433 84.8775 45.1748 84.8791 45.1059V33.9736C84.8798 33.8323 84.9364 33.6972 85.0364 33.5974C85.1364 33.4977 85.2717 33.4416 85.413 33.4412C85.4813 33.439 85.5493 33.4512 85.6126 33.4771C85.6759 33.5029 85.7331 33.5418 85.7804 33.5911C85.8782 33.6918 85.9321 33.8272 85.9303 33.9676V45.1089C85.932 45.1769 85.9198 45.2445 85.8945 45.3077C85.8693 45.3708 85.8314 45.4282 85.7833 45.4763C85.7352 45.5244 85.6779 45.5622 85.6147 45.5875C85.5516 45.6127 85.4839 45.6249 85.4159 45.6233H85.413ZM92.3956 47.222H85.413C85.3426 47.2228 85.2729 47.2091 85.2082 47.1817C85.1434 47.1544 85.085 47.1139 85.0365 47.063C84.9856 47.013 84.9454 46.9532 84.9184 46.8872C84.8913 46.8212 84.8779 46.7504 84.8791 46.6791C84.8774 46.6092 84.8905 46.5398 84.9177 46.4754C84.9448 46.4111 84.9853 46.3532 85.0365 46.3056C85.086 46.2567 85.1449 46.2183 85.2095 46.1925C85.2742 46.1668 85.3434 46.1542 85.413 46.1557H92.3956C92.5324 46.1565 92.6635 46.2103 92.7615 46.3056C92.815 46.3519 92.8576 46.4093 92.8864 46.4738C92.9151 46.5383 92.9293 46.6084 92.928 46.6791C92.9288 46.7512 92.9144 46.8226 92.8857 46.8888C92.857 46.9549 92.8147 47.0143 92.7615 47.063C92.714 47.1123 92.6572 47.1517 92.5944 47.1789C92.5316 47.2062 92.464 47.2208 92.3956 47.222Z" fill="#232326"/>
<defs>
<linearGradient id="paint0_linear" x1="146.449" y1="39.5337" x2="146.449" y2="48.937" gradientUnits="userSpaceOnUse">
<stop stop-color="#125E4D"/>
<stop offset="0.5" stop-color="#2D9F5A"/>
<stop offset="1" stop-color="#43BE71"/>
</linearGradient>
<linearGradient id="paint1_linear" x1="143.691" y1="35.2603" x2="153.713" y2="34.7713" gradientUnits="userSpaceOnUse">
<stop stop-color="#125E4D"/>
<stop offset="0.5" stop-color="#2D9F5A"/>
<stop offset="1" stop-color="#43BE71"/>
</linearGradient>
<linearGradient id="paint2_linear" x1="142.699" y1="44.1989" x2="149.321" y2="31.4215" gradientUnits="userSpaceOnUse">
<stop stop-color="#125E4D"/>
<stop offset="0.463542" stop-color="#2D9F5A"/>
<stop offset="1" stop-color="#43BE71"/>
</linearGradient>
</defs>
</svg>
