<svg width="112" height="36" viewBox="0 0 112 36" fill="none" xmlns="http://www.w3.org/2000/svg">
<path d="M111.117 11.2371C111.139 12.6917 110.496 14.0619 109.34 15.2411C109.254 15.3296 109.206 15.3911 109.122 15.4766C109.053 15.5401 108.95 15.6385 108.877 15.6995C108.805 15.7605 108.731 15.821 108.656 15.8785C108.567 15.9545 108.477 16.0284 108.388 16.0964C108.257 16.1964 108.124 16.2904 107.989 16.3834C106.497 17.3986 104.671 17.978 102.888 17.9985C100.487 17.9998 98.1826 17.0606 96.4769 15.3855C94.7712 13.7104 93.8023 11.435 93.7812 9.0551C95.4369 11.5545 98.4502 11.3735 101.691 11.3735C105.277 11.3735 108.226 11.1876 109.768 8.23779C110.186 8.58606 110.525 9.01876 110.761 9.50699C110.812 9.62328 110.857 9.74207 110.896 9.86291C110.935 9.97838 110.969 10.0759 110.997 10.2003C111.025 10.3248 111.041 10.4378 111.059 10.5542C111.077 10.6707 111.089 10.7857 111.097 10.8992C111.106 11.0126 111.115 11.1251 111.117 11.2371Z" fill="url(#paint0_linear)"/>
<path d="M108.265 2.30223C107.708 2.11043 107.141 1.95037 106.566 1.82284L106.521 1.81435C104.889 1.50392 103.224 1.5859 101.639 2.19576C101.523 2.24374 101.408 2.29506 101.296 2.34972C99.9424 2.99956 98.846 4.1138 98.3402 5.72392C98.3064 5.84439 98.2772 5.96436 98.2514 6.08433C98.085 6.87265 98.0881 7.69145 98.2953 8.44277C97.926 7.0876 97.8749 5.66657 98.1459 4.28877C98.4169 2.91098 99.0028 1.61306 99.8587 0.494659C100.016 0.436268 100.177 0.386209 100.34 0.344695C100.34 0.341195 100.565 0.28421 100.567 0.28121L100.752 0.23822C101.368 0.0986976 101.996 0.0198327 102.628 0.00277594C104.538 -0.0502115 106.772 0.65762 108.428 1.93332C108.756 2.18439 109.062 2.46194 109.344 2.76312L109.265 2.72313L109.225 2.70314C108.999 2.58962 108.766 2.48914 108.528 2.40221C108.513 2.39821 108.282 2.30823 108.265 2.30223Z" fill="url(#paint1_linear)"/>
<path d="M105.88 7.26352C105.753 7.28232 105.628 7.30802 105.504 7.3405C103.688 7.81789 102.73 9.68444 101.057 10.2438C100.946 10.2691 100.834 10.2883 100.722 10.3013C100.161 10.3608 99.5986 10.2423 99.1442 9.89739C99.0191 9.80206 98.9057 9.6925 98.8063 9.57097C98.5773 9.22388 98.4051 8.84311 98.296 8.44274C97.9267 7.08757 97.8755 5.66654 98.1466 4.28874C98.4176 2.91095 99.0035 1.61303 99.8594 0.494629C99.1972 0.716076 98.5713 0.966017 97.9909 1.31993C96.1733 2.44267 94.8328 4.17475 94.1868 6.25126C93.915 7.13234 93.7776 8.04876 93.7793 8.97011C93.7793 8.99911 93.7793 9.0261 93.7793 9.05509C94.6123 10.3164 95.746 11.3548 97.0802 12.0784C98.4144 12.8021 99.908 13.1887 101.429 13.2041C101.463 13.2041 101.496 13.2041 101.53 13.2041C103.23 13.2046 104.898 12.7414 106.35 11.8653C107.803 10.9892 108.985 9.73388 109.766 8.23679C108.728 7.36299 107.256 7.01858 105.88 7.26352Z" fill="url(#paint2_linear)"/>
<path d="M59.2268 7.67667C59.084 7.6773 58.9463 7.6237 58.8414 7.5267C58.7874 7.47815 58.7446 7.41835 58.7161 7.35151C58.6876 7.28467 58.674 7.2124 58.6764 7.13977C58.6749 7.05404 58.6689 6.96844 58.6585 6.88332C58.633 6.72436 58.597 6.5024 58.5475 6.22045C58.4034 5.57368 58.0783 4.98124 57.6102 4.51229C56.8993 3.78943 55.8705 3.428 54.5238 3.428C53.556 3.428 52.7931 3.59947 52.2352 3.9424C51.6954 4.26742 51.259 4.73915 50.977 5.30263C50.6859 5.89908 50.5055 6.5434 50.4446 7.20426C50.3708 7.90922 50.3338 8.61754 50.3336 9.32634C50.3336 9.5723 50.3336 9.84674 50.3441 10.1527C50.3546 10.4586 50.3711 10.7811 50.4086 11.1185C50.446 11.4609 50.5005 11.8013 50.572 12.1383C50.6456 12.4782 50.7505 12.8106 50.8855 13.1311C51.4974 14.5308 52.7101 15.2307 54.5238 15.2307C56.2874 15.2307 57.5002 14.6058 58.1621 13.3561C58.2823 13.1328 58.3827 12.8995 58.462 12.6587C58.5253 12.4567 58.5754 12.2508 58.612 12.0423C58.6448 11.8437 58.6663 11.6434 58.6764 11.4424C58.6754 11.3728 58.6896 11.3039 58.7181 11.2404C58.7466 11.1769 58.7887 11.1204 58.8414 11.075C58.9463 10.9781 59.084 10.9246 59.2268 10.925C59.2948 10.9234 59.3625 10.9356 59.4256 10.9608C59.4888 10.9861 59.5461 11.0239 59.5942 11.072C59.6423 11.1201 59.6802 11.1775 59.7054 11.2406C59.7307 11.3038 59.7429 11.3714 59.7412 11.4394C59.7412 11.4514 59.7412 11.5294 59.7322 11.6689C59.7208 11.8544 59.6962 12.0388 59.6588 12.2208C59.6153 12.4472 59.5523 12.7052 59.4668 12.9916C59.3742 13.2942 59.2511 13.5867 59.0994 13.8645C58.7465 14.5305 58.226 15.0929 57.5892 15.4961C57.1847 15.7514 56.7451 15.9464 56.2844 16.075C55.7099 16.2314 55.1161 16.3056 54.5208 16.2955C53.308 16.2955 52.3082 16.038 51.5214 15.5231C50.8244 15.017 50.2697 14.3399 49.9107 13.557C49.7555 13.1922 49.635 12.8136 49.5507 12.4262C49.4671 12.0505 49.4035 11.6705 49.3603 11.288C49.3183 10.915 49.2943 10.5596 49.2883 10.2217C49.2823 9.88374 49.2793 9.58679 49.2793 9.33084C49.2793 9.0489 49.2823 8.73646 49.2883 8.39353C49.2943 8.0506 49.3153 7.69566 49.3513 7.32874C49.3885 6.95142 49.4491 6.57678 49.5327 6.20696C49.6164 5.82864 49.7369 5.45944 49.8927 5.10467C50.0705 4.7009 50.3037 4.32385 50.5855 3.98439C50.8546 3.6654 51.1624 3.38126 51.5019 3.13856C52.2867 2.62466 53.2915 2.36721 54.5163 2.36621C56.1569 2.36621 57.4432 2.83212 58.375 3.76394C58.6879 4.08211 58.9482 4.44813 59.1459 4.84822C59.3156 5.18893 59.4513 5.5456 59.5508 5.91301C59.624 6.18728 59.6742 6.46721 59.7007 6.74985C59.7187 6.97631 59.7277 7.10828 59.7277 7.14427V7.16227C59.7298 7.23039 59.7179 7.2982 59.6928 7.36155C59.6677 7.4249 59.6299 7.48244 59.5817 7.53063C59.5335 7.57882 59.476 7.61663 59.4126 7.64175C59.3493 7.66686 59.2815 7.67875 59.2133 7.67667H59.2268Z" fill="#1F8E4E"/>
<path d="M69.4773 3.50576H60.767C60.6278 3.50426 60.4946 3.44891 60.3953 3.35133C60.2961 3.25374 60.2385 3.12151 60.2346 2.98236C60.2326 2.91181 60.2448 2.84158 60.2706 2.77587C60.2964 2.71016 60.3351 2.65032 60.3846 2.59994C60.4329 2.54884 60.4913 2.50833 60.5561 2.48097C60.6209 2.45361 60.6907 2.43999 60.761 2.44097H69.4713C69.5416 2.43999 69.6114 2.45361 69.6762 2.48097C69.7409 2.50833 69.7994 2.54884 69.8477 2.59994C69.8971 2.65032 69.9359 2.71016 69.9616 2.77587C69.9874 2.84158 69.9997 2.91181 69.9977 2.98236C69.9938 3.12151 69.9362 3.25374 69.8369 3.35133C69.7377 3.44891 69.6045 3.50426 69.4653 3.50576H69.4773ZM65.0951 16.2218C65.0242 16.2246 64.9536 16.212 64.8881 16.1848C64.8226 16.1576 64.7637 16.1165 64.7157 16.0643C64.6182 15.9634 64.5643 15.8282 64.5657 15.6879V4.79251C64.5668 4.65799 64.6206 4.52926 64.7157 4.43408C64.7646 4.38347 64.8237 4.3439 64.8892 4.31804C64.9546 4.29217 65.0248 4.2806 65.0951 4.28411C65.1638 4.28261 65.2321 4.29514 65.2958 4.32092C65.3595 4.34671 65.4172 4.38521 65.4656 4.43408C65.5134 4.48067 65.5513 4.53642 65.5771 4.59801C65.6028 4.6596 65.6159 4.72575 65.6155 4.79251V15.6879C65.6171 15.7575 65.6047 15.8267 65.5789 15.8914C65.5532 15.9561 65.5146 16.0149 65.4656 16.0643C65.4181 16.1147 65.3606 16.1548 65.2969 16.1819C65.2331 16.209 65.1644 16.2226 65.0951 16.2218Z" fill="#1F8E4E"/>
<path d="M81.686 15.7078C81.6773 15.846 81.6167 15.9759 81.5163 16.0713C81.4159 16.1667 81.2831 16.2206 81.1446 16.2222C81.0727 16.2255 81.0011 16.2103 80.9368 16.178C80.8725 16.1457 80.8175 16.0974 80.7772 16.0377L76.992 11.9765H72.5633V15.7078C72.563 15.7753 72.5484 15.8421 72.5204 15.9036C72.4925 15.9651 72.452 16.02 72.4014 16.0647C72.3546 16.1137 72.2986 16.1529 72.2365 16.1799C72.1745 16.207 72.1076 16.2213 72.0399 16.2222C71.9706 16.2231 71.9019 16.2095 71.8382 16.1824C71.7744 16.1553 71.7169 16.1152 71.6695 16.0647C71.6217 16.0184 71.5838 15.9629 71.5581 15.9016C71.5323 15.8403 71.5192 15.7743 71.5195 15.7078V2.9738C71.5195 2.83286 71.5754 2.69767 71.6749 2.59787C71.7745 2.49807 71.9095 2.4418 72.0504 2.44141H76.5256C76.563 2.44141 76.6965 2.4504 76.929 2.4684C77.22 2.495 77.5084 2.54516 77.7913 2.61837C78.1692 2.72043 78.5355 2.86114 78.8846 3.03829C79.2972 3.24423 79.6748 3.51399 80.0034 3.83763C80.8462 4.67047 81.2676 5.79125 81.2676 7.19997C81.2874 8.0112 81.1399 8.81781 80.8342 9.56951C80.589 10.1274 80.2221 10.6234 79.7604 11.0212C79.7067 11.0677 79.6439 11.1025 79.5759 11.1231C79.508 11.1438 79.4365 11.1499 79.366 11.1412C79.2295 11.1257 79.1024 11.0637 79.0061 10.9657C78.9587 10.9147 78.924 10.8532 78.905 10.7862C78.886 10.7192 78.8831 10.6486 78.8966 10.5803C78.9169 10.4412 78.9816 10.3123 79.081 10.2129C79.8399 9.57701 80.2193 8.5727 80.2193 7.19997C80.2193 6.07219 79.9064 5.19637 79.2805 4.57249C79.0195 4.3052 78.7101 4.08992 78.3687 3.93811C78.0914 3.81623 77.8051 3.71595 77.5124 3.63817C77.2124 3.58868 76.9785 3.55269 76.794 3.52869C76.7025 3.51674 76.6103 3.51023 76.5181 3.5092H72.5633V10.9117H77.2484C77.3177 10.9125 77.3861 10.9275 77.4493 10.9559C77.5125 10.9843 77.5692 11.0254 77.6158 11.0767L81.5481 15.3404C81.5965 15.3878 81.634 15.4453 81.6579 15.5088C81.6817 15.5722 81.6913 15.6402 81.686 15.7078Z" fill="#1F8E4E"/>
<path d="M83.595 14.6233C83.4547 14.625 83.3193 14.5711 83.2186 14.4733C83.1692 14.426 83.1304 14.3689 83.1045 14.3056C83.0787 14.2423 83.0665 14.1742 83.0686 14.1059V2.97359C83.0686 2.83239 83.1247 2.69697 83.2246 2.59713C83.3244 2.49728 83.4598 2.44119 83.601 2.44119C83.6696 2.4389 83.7379 2.45107 83.8015 2.47691C83.865 2.50275 83.9224 2.54167 83.97 2.59116C84.0678 2.69187 84.1217 2.82722 84.1199 2.96759V14.1089C84.1216 14.177 84.1094 14.2448 84.084 14.308C84.0586 14.3713 84.0207 14.4287 83.9724 14.4769C83.9242 14.525 83.8666 14.5628 83.8033 14.5879C83.74 14.6131 83.6722 14.6251 83.604 14.6233H83.595ZM90.5822 16.222H83.595C83.5247 16.2228 83.455 16.2091 83.3903 16.1817C83.3255 16.1544 83.2671 16.114 83.2186 16.063C83.1693 16.0123 83.1306 15.9521 83.1049 15.8862C83.0791 15.8203 83.0668 15.7499 83.0686 15.6791C83.0663 15.6098 83.0784 15.5409 83.1042 15.4766C83.13 15.4123 83.169 15.354 83.2186 15.3057C83.2681 15.2568 83.327 15.2183 83.3916 15.1925C83.4563 15.1668 83.5255 15.1542 83.595 15.1557H90.5822C90.7194 15.1563 90.8511 15.2101 90.9496 15.3057C91.0031 15.3519 91.0457 15.4093 91.0744 15.4738C91.1032 15.5384 91.1174 15.6084 91.1161 15.6791C91.1169 15.7512 91.1025 15.8226 91.0738 15.8888C91.0451 15.955 91.0028 16.0143 90.9496 16.063C90.9018 16.1124 90.8448 16.1519 90.7817 16.1791C90.7187 16.2064 90.6509 16.221 90.5822 16.222Z" fill="#1F8E4E"/>
<path d="M9.2429 3.50625H0.532606C0.461275 3.50807 0.39036 3.49486 0.324473 3.46747C0.258585 3.44008 0.1992 3.39913 0.150181 3.34728C0.101982 3.29972 0.0638601 3.24295 0.038093 3.18033C0.0123259 3.11772 -0.000558085 3.05055 0.000210373 2.98285C-0.00178766 2.9123 0.0104638 2.84207 0.036232 2.77636C0.0620002 2.71065 0.100756 2.65081 0.150181 2.60042C0.198516 2.54933 0.256927 2.50882 0.32172 2.48146C0.386513 2.4541 0.45628 2.44047 0.526607 2.44146H9.2429C9.31322 2.44047 9.38299 2.4541 9.44778 2.48146C9.51258 2.50882 9.57099 2.54933 9.61932 2.60042C9.66875 2.65081 9.7075 2.71065 9.73327 2.77636C9.75904 2.84207 9.77129 2.9123 9.76929 2.98285C9.76542 3.12199 9.70781 3.25423 9.60855 3.35182C9.50929 3.4494 9.37609 3.50475 9.2369 3.50625H9.2429ZM4.86076 16.2223C4.78987 16.2251 4.71922 16.2125 4.6537 16.1853C4.58818 16.1581 4.52936 16.117 4.48133 16.0648C4.43284 16.015 4.39464 15.9561 4.36891 15.8915C4.34317 15.8269 4.33041 15.7579 4.33136 15.6884V4.79299C4.33156 4.72632 4.34491 4.66035 4.37064 4.59884C4.39637 4.53733 4.43399 4.48151 4.48133 4.43456C4.53022 4.38396 4.58937 4.34439 4.65482 4.31852C4.72026 4.29266 4.79048 4.28109 4.86076 4.28459C4.92925 4.28295 4.99735 4.29541 5.06082 4.32121C5.12428 4.34701 5.18177 4.3856 5.22968 4.43456C5.27771 4.481 5.31577 4.53672 5.34156 4.59835C5.36734 4.65997 5.3803 4.7262 5.37965 4.79299V15.6884C5.38153 15.758 5.3692 15.8273 5.34342 15.892C5.31763 15.9567 5.27893 16.0155 5.22968 16.0648C5.18253 16.1153 5.12536 16.1553 5.06183 16.1824C4.99831 16.2096 4.92982 16.2231 4.86076 16.2223Z" fill="#232326"/>
<path d="M15.1744 16.2762C13.4107 16.2762 12.1 15.7373 11.2421 14.6595C10.3113 13.5457 9.84591 11.7695 9.84591 9.33101C9.843 8.76056 9.87053 8.19037 9.92839 7.62285C9.97859 7.14111 10.0552 6.66248 10.1579 6.18913C10.3658 5.25731 10.6907 4.52846 11.1327 4.00256C11.593 3.44671 12.1869 3.01686 12.8588 2.75331C13.4727 2.50935 14.2445 2.38688 15.1744 2.38588C15.5989 2.38332 16.0228 2.41693 16.4416 2.48636C16.8118 2.5468 17.1711 2.66151 17.5079 2.82679C18.192 3.10484 18.7887 3.5617 19.2356 4.14953C20.0554 5.27731 20.4658 7.00447 20.4668 9.33101C20.4774 10.3445 20.3723 11.3558 20.1534 12.3454C20.0506 12.7576 19.9095 13.1593 19.732 13.5452C19.5671 13.9012 19.3569 14.2344 19.1066 14.5365C18.2248 15.6963 16.914 16.2762 15.1744 16.2762ZM15.1744 3.45217C13.6427 3.45217 12.5649 3.85609 11.941 4.66393C11.2411 5.58375 10.8912 7.13944 10.8912 9.33101C10.8735 10.2789 10.9697 11.2255 11.1776 12.1505C11.3267 12.8196 11.6115 13.451 12.0145 14.0056C12.6634 14.8144 13.7167 15.2189 15.1744 15.2189C16.5821 15.2189 17.6294 14.7654 18.3162 13.8586C18.705 13.295 18.9825 12.6623 19.1336 11.9945C19.3369 11.1242 19.4326 10.2322 19.4185 9.33851C19.4185 7.26892 19.0821 5.76222 18.4092 4.8184C17.7344 3.90758 16.6561 3.45217 15.1744 3.45217Z" fill="#232326"/>
<path d="M29.4265 3.50627H20.7162C20.577 3.50477 20.4438 3.44942 20.3445 3.35184C20.2453 3.25425 20.1877 3.12201 20.1838 2.98287C20.1818 2.91232 20.1941 2.84209 20.2198 2.77638C20.2456 2.71067 20.2843 2.65083 20.3338 2.60044C20.382 2.5492 20.4404 2.5086 20.5052 2.48122C20.57 2.45385 20.6398 2.44031 20.7102 2.44148H29.4205C29.4908 2.44049 29.5606 2.45411 29.6254 2.48148C29.6902 2.50884 29.7486 2.54935 29.7969 2.60044C29.8463 2.65083 29.8851 2.71067 29.9109 2.77638C29.9366 2.84209 29.9489 2.91232 29.9469 2.98287C29.943 3.12201 29.8854 3.25425 29.7861 3.35184C29.6869 3.44942 29.5537 3.50477 29.4145 3.50627H29.4265ZM25.0459 16.2223C24.975 16.2251 24.9043 16.2125 24.8388 16.1853C24.7733 16.1581 24.7145 16.117 24.6664 16.0648C24.6179 16.015 24.5797 15.9561 24.554 15.8915C24.5283 15.8269 24.5155 15.7579 24.5165 15.6884V4.79301C24.5167 4.72634 24.53 4.66036 24.5557 4.59886C24.5815 4.53735 24.6191 4.48153 24.6664 4.43458C24.7153 4.38398 24.7745 4.34441 24.8399 4.31854C24.9054 4.29268 24.9756 4.28111 25.0459 4.28461C25.1143 4.28297 25.1824 4.29543 25.2459 4.32123C25.3094 4.34703 25.3669 4.38562 25.4148 4.43458C25.4628 4.48102 25.5009 4.53674 25.5267 4.59836C25.5524 4.65999 25.5654 4.72622 25.5647 4.79301V15.6884C25.5666 15.758 25.5543 15.8273 25.5285 15.892C25.5027 15.9567 25.464 16.0155 25.4148 16.0648C25.3676 16.1153 25.3105 16.1553 25.2469 16.1825C25.1834 16.2096 25.1149 16.2231 25.0459 16.2223Z" fill="#232326"/>
<path d="M39.3567 15.4872C39.3863 15.5503 39.4016 15.6191 39.4016 15.6889C39.4016 15.7586 39.3863 15.8274 39.3567 15.8906C39.2992 16.0255 39.1917 16.133 39.0568 16.1905C38.9954 16.2208 38.9282 16.2373 38.8598 16.2388C38.7914 16.2404 38.7235 16.227 38.6609 16.1995C38.5324 16.1453 38.4302 16.043 38.3759 15.9146L33.6608 4.35184L28.9008 15.9086C28.8556 16.0017 28.7853 16.0803 28.6979 16.1357C28.6105 16.1911 28.5093 16.221 28.4059 16.222C28.3364 16.2257 28.267 16.2129 28.2034 16.1845C28.0685 16.127 27.961 16.0195 27.9035 15.8846C27.8732 15.8217 27.8574 15.7527 27.8574 15.6829C27.8574 15.613 27.8732 15.5441 27.9035 15.4812L33.1764 2.74715C33.2172 2.65447 33.2841 2.57567 33.3689 2.52034C33.4537 2.46501 33.5528 2.43555 33.6541 2.43555C33.7553 2.43555 33.8544 2.46501 33.9392 2.52034C34.0241 2.57567 34.0909 2.65447 34.1317 2.74715L39.3567 15.4872ZM35.516 12.5102H31.7667C31.6302 12.503 31.5017 12.4437 31.4076 12.3445C31.3135 12.2453 31.2611 12.1138 31.2611 11.9771C31.2611 11.8404 31.3135 11.7089 31.4076 11.6097C31.5017 11.5105 31.6302 11.4512 31.7667 11.4439H35.516C35.6525 11.4512 35.781 11.5105 35.8751 11.6097C35.9691 11.7089 36.0216 11.8404 36.0216 11.9771C36.0216 12.1138 35.9691 12.2453 35.8751 12.3445C35.781 12.4437 35.6525 12.503 35.516 12.5102Z" fill="#232326"/>
<path d="M41.4129 14.6233C41.2726 14.625 41.1372 14.5711 41.0365 14.4733C40.9856 14.4268 40.9451 14.37 40.918 14.3066C40.8908 14.2433 40.8775 14.1748 40.8791 14.1059V2.97356C40.8798 2.83234 40.9364 2.69716 41.0364 2.59744C41.1364 2.49773 41.2717 2.44156 41.4129 2.44116C41.4813 2.43899 41.5493 2.45122 41.6126 2.47706C41.6759 2.5029 41.7331 2.54176 41.7804 2.59113C41.8782 2.69185 41.9321 2.82719 41.9303 2.96756V14.1089C41.932 14.1769 41.9198 14.2445 41.8945 14.3077C41.8693 14.3708 41.8314 14.4282 41.7833 14.4763C41.7352 14.5244 41.6779 14.5622 41.6147 14.5875C41.5516 14.6127 41.4839 14.6249 41.4159 14.6233H41.4129ZM48.3956 16.222H41.4129C41.3426 16.2228 41.2729 16.2091 41.2082 16.1817C41.1434 16.1544 41.085 16.1139 41.0365 16.063C40.9856 16.013 40.9454 15.9532 40.9184 15.8872C40.8913 15.8212 40.8779 15.7504 40.8791 15.6791C40.8774 15.6092 40.8905 15.5398 40.9177 15.4754C40.9448 15.4111 40.9853 15.3532 41.0365 15.3056C41.086 15.2567 41.1449 15.2183 41.2095 15.1925C41.2742 15.1668 41.3434 15.1542 41.4129 15.1557H48.3956C48.5323 15.1565 48.6635 15.2103 48.7615 15.3056C48.815 15.3519 48.8576 15.4093 48.8864 15.4738C48.9151 15.5383 48.9293 15.6084 48.928 15.6791C48.9288 15.7512 48.9144 15.8226 48.8857 15.8888C48.857 15.9549 48.8147 16.0143 48.7615 16.063C48.714 16.1123 48.6572 16.1517 48.5944 16.1789C48.5316 16.2062 48.464 16.2208 48.3956 16.222Z" fill="#232326"/>
<path d="M28.6627 29.0199H27.8027V35.9199H28.6627V29.0199Z" fill="#2E2E31"/>
<path d="M35.2864 29.0199V34.2899L32.2864 29.0199H31.4664V35.9199H32.3264V30.6999L35.3064 35.9199H36.1464V29.0199H35.2864Z" fill="#2E2E31"/>
<path d="M38.0934 29.0199L40.5934 35.9199H41.4034L43.9034 29.0199H42.9534L40.9834 34.5199L39.0434 29.0199H38.0934Z" fill="#2E2E31"/>
<path d="M45.8492 29.0199V35.9199H50.0092V35.1399H46.7092V32.7399H49.7092V31.9599H46.7092V29.7999H50.0092V29.0199H45.8492Z" fill="#2E2E31"/>
<path d="M56.0794 29.0199V34.2899L53.0794 29.0199H52.2594V35.9199H53.1194V30.6999L56.0994 35.9199H56.9394V29.0199H56.0794Z" fill="#2E2E31"/>
<path d="M58.8363 29.0199V29.7999H60.9363V35.9199H61.7963V29.7999H63.8963V29.0199H58.8363Z" fill="#2E2E31"/>
<path d="M70.4426 32.8499V32.0899C70.4426 29.8599 69.4726 28.9399 67.9426 28.9399C66.4126 28.9399 65.4426 29.8599 65.4426 32.0899V32.8499C65.4426 35.0799 66.4126 35.9999 67.9426 35.9999C69.4726 35.9999 70.4426 35.0799 70.4426 32.8499ZM66.3026 32.0899C66.3026 30.3799 66.8826 29.7199 67.9426 29.7199C69.0026 29.7199 69.5826 30.3799 69.5826 32.0899V32.8499C69.5826 34.5599 69.0026 35.2199 67.9426 35.2199C66.8826 35.2199 66.3026 34.5599 66.3026 32.8499V32.0899Z" fill="#2E2E31"/>
<path d="M77.6787 35.9199L76.1387 32.8599C77.0187 32.5999 77.4987 31.9899 77.4987 31.0199C77.4987 29.6799 76.5787 29.0199 74.9887 29.0199H72.7887V35.9199H73.6487V33.0099H75.2787L76.7187 35.9199H77.6787ZM73.6487 32.2299V29.7999H74.9887C76.1587 29.7999 76.6387 30.1599 76.6387 31.0199C76.6387 31.8699 76.1587 32.2299 74.9887 32.2299H73.6487Z" fill="#2E2E31"/>
<path d="M79.0371 29.0199L81.1871 32.9599V35.9199H82.0471V32.9599L84.1971 29.0199H83.1871L81.6171 32.0199L80.0471 29.0199H79.0371Z" fill="#2E2E31"/>
<defs>
<linearGradient id="paint0_linear" x1="102.449" y1="8.53372" x2="102.449" y2="17.937" gradientUnits="userSpaceOnUse">
<stop stop-color="#125E4D"/>
<stop offset="0.5" stop-color="#2D9F5A"/>
<stop offset="1" stop-color="#43BE71"/>
</linearGradient>
<linearGradient id="paint1_linear" x1="99.6903" y1="4.26027" x2="109.712" y2="3.77134" gradientUnits="userSpaceOnUse">
<stop stop-color="#125E4D"/>
<stop offset="0.5" stop-color="#2D9F5A"/>
<stop offset="1" stop-color="#43BE71"/>
</linearGradient>
<linearGradient id="paint2_linear" x1="98.6989" y1="13.1989" x2="105.321" y2="0.421461" gradientUnits="userSpaceOnUse">
<stop stop-color="#125E4D"/>
<stop offset="0.463542" stop-color="#2D9F5A"/>
<stop offset="1" stop-color="#43BE71"/>
</linearGradient>
</defs>
</svg>
