<svg width="4" height="12" viewBox="0 0 4 12" fill="none" xmlns="http://www.w3.org/2000/svg">
<path d="M1.33301 5.99967C1.33301 5.63148 1.63148 5.33301 1.99967 5.33301C2.36786 5.33301 2.66634 5.63148 2.66634 5.99967C2.66634 6.36786 2.36786 6.66634 1.99967 6.66634C1.63148 6.66634 1.33301 6.36786 1.33301 5.99967ZM1.33301 1.99967C1.33301 1.63148 1.63148 1.33301 1.99967 1.33301C2.36786 1.33301 2.66634 1.63148 2.66634 1.99967C2.66634 2.36786 2.36786 2.66634 1.99967 2.66634C1.63148 2.66634 1.33301 2.36786 1.33301 1.99967ZM1.33301 9.99967C1.33301 9.63148 1.63148 9.33301 1.99967 9.33301C2.36786 9.33301 2.66634 9.63148 2.66634 9.99967C2.66634 10.3679 2.36786 10.6663 1.99967 10.6663C1.63148 10.6663 1.33301 10.3679 1.33301 9.99967Z" stroke="white" stroke-width="2" stroke-linecap="round"/>
</svg>
