<svg width="624" height="96" viewBox="0 0 624 96" fill="none" xmlns="http://www.w3.org/2000/svg">
<path d="M0 4C0 1.79086 1.79086 0 4 0H620C622.209 0 624 1.79086 624 4V92C624 94.2091 622.209 96 620 96H3.99999C1.79085 96 0 94.2091 0 92V4Z" fill="#F2F1FF"/>
<path d="M70.996 35H72.62V27.216H75.252V25.844H68.35V27.216H70.996V35ZM76.6236 35H78.2336V30.198C78.8076 29.638 79.1996 29.344 79.8016 29.344C80.5576 29.344 80.8796 29.764 80.8796 30.898V35H82.4896V30.688C82.4896 28.952 81.8456 27.958 80.3756 27.958C79.4376 27.958 78.7516 28.448 78.1776 28.994L78.2336 27.664V25.116H76.6236V35ZM85.2422 26.922C85.8162 26.922 86.2362 26.544 86.2362 26.012C86.2362 25.466 85.8162 25.088 85.2422 25.088C84.6682 25.088 84.2482 25.466 84.2482 26.012C84.2482 26.544 84.6682 26.922 85.2422 26.922ZM84.4302 35H86.0402V28.126H84.4302V35ZM87.4083 34.216C88.0803 34.762 89.0743 35.168 90.0123 35.168C91.7483 35.168 92.6863 34.216 92.6863 33.04C92.6863 31.752 91.6503 31.304 90.7123 30.954C89.9703 30.688 89.2843 30.464 89.2843 29.932C89.2843 29.498 89.6063 29.176 90.2923 29.176C90.8383 29.176 91.3283 29.414 91.8043 29.764L92.5463 28.784C91.9863 28.35 91.2163 27.958 90.2643 27.958C88.7243 27.958 87.7583 28.812 87.7583 30.016C87.7583 31.164 88.7803 31.682 89.6903 32.018C90.4183 32.298 91.1603 32.55 91.1603 33.124C91.1603 33.6 90.8103 33.95 90.0683 33.95C89.3683 33.95 88.7803 33.656 88.1643 33.18L87.4083 34.216ZM98.5627 34.412C99.1227 34.888 99.7247 35.168 100.327 35.168C101.853 35.168 103.267 33.81 103.267 31.458C103.267 29.33 102.273 27.958 100.565 27.958C99.8087 27.958 99.0667 28.364 98.4927 28.854H98.4367L98.3247 28.126H96.9947V37.716H98.6047V35.56L98.5627 34.412ZM98.6047 33.264V30.058C99.1367 29.54 99.6127 29.288 100.117 29.288C101.153 29.288 101.601 30.1 101.601 31.472C101.601 33.026 100.901 33.838 99.9907 33.838C99.5847 33.838 99.1087 33.684 98.6047 33.264ZM104.897 35H106.507V30.8C106.927 29.764 107.585 29.386 108.131 29.386C108.425 29.386 108.607 29.428 108.845 29.498L109.125 28.098C108.915 28 108.691 27.958 108.341 27.958C107.613 27.958 106.885 28.448 106.395 29.344H106.339L106.227 28.126H104.897V35ZM109.535 31.57C109.535 33.852 111.089 35.168 112.797 35.168C114.519 35.168 116.073 33.852 116.073 31.57C116.073 29.274 114.519 27.958 112.797 27.958C111.089 27.958 109.535 29.274 109.535 31.57ZM111.187 31.57C111.187 30.184 111.789 29.274 112.797 29.274C113.805 29.274 114.421 30.184 114.421 31.57C114.421 32.942 113.805 33.852 112.797 33.852C111.789 33.852 111.187 32.942 111.187 31.57ZM117.247 31.57C117.247 33.838 118.353 35.168 120.075 35.168C120.817 35.168 121.517 34.762 122.021 34.258H122.077L122.189 35H123.519V25.116H121.909V27.608L121.965 28.714C121.433 28.252 120.943 27.958 120.159 27.958C118.661 27.958 117.247 29.33 117.247 31.57ZM118.913 31.556C118.913 30.114 119.627 29.288 120.509 29.288C120.971 29.288 121.433 29.442 121.909 29.862V33.068C121.447 33.6 120.999 33.838 120.467 33.838C119.473 33.838 118.913 33.04 118.913 31.556ZM125.499 32.438C125.499 34.174 126.143 35.168 127.613 35.168C128.551 35.168 129.223 34.706 129.825 33.992H129.867L129.993 35H131.309V28.126H129.699V32.83C129.181 33.502 128.775 33.782 128.173 33.782C127.431 33.782 127.109 33.362 127.109 32.228V28.126H125.499V32.438ZM132.9 31.57C132.9 33.852 134.342 35.168 136.218 35.168C137.002 35.168 137.828 34.86 138.472 34.286L137.8 33.264C137.422 33.572 136.946 33.852 136.386 33.852C135.308 33.852 134.552 32.942 134.552 31.57C134.552 30.184 135.322 29.274 136.428 29.274C136.862 29.274 137.226 29.456 137.59 29.778L138.36 28.756C137.898 28.308 137.226 27.958 136.344 27.958C134.51 27.958 132.9 29.274 132.9 31.57ZM140.053 32.676C140.053 34.16 140.641 35.168 142.237 35.168C142.783 35.168 143.259 35.042 143.637 34.916L143.357 33.726C143.161 33.81 142.881 33.88 142.643 33.88C141.985 33.88 141.677 33.488 141.677 32.676V29.4H143.427V28.126H141.677V26.25H140.333L140.137 28.126L139.073 28.196V29.4H140.053V32.676ZM148.557 26.922C149.131 26.922 149.551 26.544 149.551 26.012C149.551 25.466 149.131 25.088 148.557 25.088C147.983 25.088 147.563 25.466 147.563 26.012C147.563 26.544 147.983 26.922 148.557 26.922ZM147.745 35H149.355V28.126H147.745V35ZM150.723 34.216C151.395 34.762 152.389 35.168 153.327 35.168C155.063 35.168 156.001 34.216 156.001 33.04C156.001 31.752 154.965 31.304 154.027 30.954C153.285 30.688 152.599 30.464 152.599 29.932C152.599 29.498 152.921 29.176 153.607 29.176C154.153 29.176 154.643 29.414 155.119 29.764L155.861 28.784C155.301 28.35 154.531 27.958 153.579 27.958C152.039 27.958 151.073 28.812 151.073 30.016C151.073 31.164 152.095 31.682 153.005 32.018C153.733 32.298 154.475 32.55 154.475 33.124C154.475 33.6 154.125 33.95 153.383 33.95C152.683 33.95 152.095 33.656 151.479 33.18L150.723 34.216ZM160.015 33.152C160.015 34.356 160.855 35.168 162.059 35.168C162.871 35.168 163.571 34.762 164.187 34.244H164.229L164.355 35H165.671V30.926C165.671 29.008 164.831 27.958 163.109 27.958C162.017 27.958 161.051 28.378 160.295 28.854L160.883 29.932C161.485 29.568 162.129 29.26 162.815 29.26C163.739 29.26 164.047 29.876 164.061 30.604C161.247 30.912 160.015 31.682 160.015 33.152ZM161.583 33.026C161.583 32.34 162.199 31.85 164.061 31.612V33.152C163.557 33.628 163.123 33.908 162.563 33.908C161.989 33.908 161.583 33.642 161.583 33.026ZM167.637 33.236C167.637 34.426 168.057 35.168 169.205 35.168C169.583 35.168 169.863 35.112 170.059 35.028L169.849 33.824C169.723 33.852 169.667 33.852 169.597 33.852C169.429 33.852 169.247 33.712 169.247 33.32V25.116H167.637V33.236ZM171.438 35H173.048V30.8C173.468 29.764 174.126 29.386 174.672 29.386C174.966 29.386 175.148 29.428 175.386 29.498L175.666 28.098C175.456 28 175.232 27.958 174.882 27.958C174.154 27.958 173.426 28.448 172.936 29.344H172.88L172.768 28.126H171.438V35ZM176.076 31.57C176.076 33.838 177.56 35.168 179.464 35.168C180.332 35.168 181.158 34.86 181.816 34.426L181.27 33.418C180.766 33.74 180.262 33.922 179.674 33.922C178.568 33.922 177.784 33.222 177.644 31.976H182.012C182.054 31.808 182.082 31.528 182.082 31.22C182.082 29.302 181.102 27.958 179.24 27.958C177.63 27.958 176.076 29.33 176.076 31.57ZM177.63 30.954C177.77 29.806 178.47 29.204 179.282 29.204C180.22 29.204 180.682 29.862 180.682 30.954H177.63ZM183.162 33.152C183.162 34.356 184.002 35.168 185.206 35.168C186.018 35.168 186.718 34.762 187.334 34.244H187.376L187.502 35H188.818V30.926C188.818 29.008 187.978 27.958 186.256 27.958C185.164 27.958 184.198 28.378 183.442 28.854L184.03 29.932C184.632 29.568 185.276 29.26 185.962 29.26C186.886 29.26 187.194 29.876 187.208 30.604C184.394 30.912 183.162 31.682 183.162 33.152ZM184.73 33.026C184.73 32.34 185.346 31.85 187.208 31.612V33.152C186.704 33.628 186.27 33.908 185.71 33.908C185.136 33.908 184.73 33.642 184.73 33.026ZM190.364 31.57C190.364 33.838 191.47 35.168 193.192 35.168C193.934 35.168 194.634 34.762 195.138 34.258H195.194L195.306 35H196.636V25.116H195.026V27.608L195.082 28.714C194.55 28.252 194.06 27.958 193.276 27.958C191.778 27.958 190.364 29.33 190.364 31.57ZM192.03 31.556C192.03 30.114 192.744 29.288 193.626 29.288C194.088 29.288 194.55 29.442 195.026 29.862V33.068C194.564 33.6 194.116 33.838 193.584 33.838C192.59 33.838 192.03 33.04 192.03 31.556ZM198.546 36.428L198.252 37.688C198.504 37.772 198.77 37.828 199.148 37.828C200.646 37.828 201.36 36.862 201.934 35.308L204.426 28.126H202.872L201.836 31.5C201.668 32.116 201.486 32.802 201.318 33.432H201.262C201.052 32.788 200.856 32.102 200.66 31.5L199.47 28.126H197.832L200.534 34.916L200.408 35.35C200.184 36.036 199.764 36.526 199.036 36.526C198.868 36.526 198.672 36.47 198.546 36.428ZM209.301 26.922C209.875 26.922 210.295 26.544 210.295 26.012C210.295 25.466 209.875 25.088 209.301 25.088C208.727 25.088 208.307 25.466 208.307 26.012C208.307 26.544 208.727 26.922 209.301 26.922ZM208.489 35H210.099V28.126H208.489V35ZM212.153 35H213.763V30.198C214.337 29.638 214.729 29.344 215.331 29.344C216.087 29.344 216.409 29.764 216.409 30.898V35H218.019V30.688C218.019 28.952 217.375 27.958 215.905 27.958C214.967 27.958 214.267 28.448 213.651 29.05H213.595L213.483 28.126H212.153V35ZM222.718 36.428L222.424 37.688C222.676 37.772 222.942 37.828 223.32 37.828C224.818 37.828 225.532 36.862 226.106 35.308L228.598 28.126H227.044L226.008 31.5C225.84 32.116 225.658 32.802 225.49 33.432H225.434C225.224 32.788 225.028 32.102 224.832 31.5L223.642 28.126H222.004L224.706 34.916L224.58 35.35C224.356 36.036 223.936 36.526 223.208 36.526C223.04 36.526 222.844 36.47 222.718 36.428ZM229.26 31.57C229.26 33.852 230.814 35.168 232.522 35.168C234.244 35.168 235.798 33.852 235.798 31.57C235.798 29.274 234.244 27.958 232.522 27.958C230.814 27.958 229.26 29.274 229.26 31.57ZM230.912 31.57C230.912 30.184 231.514 29.274 232.522 29.274C233.53 29.274 234.146 30.184 234.146 31.57C234.146 32.942 233.53 33.852 232.522 33.852C231.514 33.852 230.912 32.942 230.912 31.57ZM237.321 32.438C237.321 34.174 237.965 35.168 239.435 35.168C240.373 35.168 241.045 34.706 241.647 33.992H241.689L241.815 35H243.131V28.126H241.521V32.83C241.003 33.502 240.597 33.782 239.995 33.782C239.253 33.782 238.931 33.362 238.931 32.228V28.126H237.321V32.438ZM245.17 35H246.78V30.8C247.2 29.764 247.858 29.386 248.404 29.386C248.698 29.386 248.88 29.428 249.118 29.498L249.398 28.098C249.188 28 248.964 27.958 248.614 27.958C247.886 27.958 247.158 28.448 246.668 29.344H246.612L246.5 28.126H245.17V35ZM254.832 34.412C255.392 34.888 255.994 35.168 256.596 35.168C258.122 35.168 259.536 33.81 259.536 31.458C259.536 29.33 258.542 27.958 256.834 27.958C256.078 27.958 255.336 28.364 254.762 28.854H254.706L254.594 28.126H253.264V37.716H254.874V35.56L254.832 34.412ZM254.874 33.264V30.058C255.406 29.54 255.882 29.288 256.386 29.288C257.422 29.288 257.87 30.1 257.87 31.472C257.87 33.026 257.17 33.838 256.26 33.838C255.854 33.838 255.378 33.684 254.874 33.264ZM261.167 35H262.777V30.8C263.197 29.764 263.855 29.386 264.401 29.386C264.695 29.386 264.877 29.428 265.115 29.498L265.395 28.098C265.185 28 264.961 27.958 264.611 27.958C263.883 27.958 263.155 28.448 262.665 29.344H262.609L262.497 28.126H261.167V35ZM265.804 31.57C265.804 33.852 267.358 35.168 269.066 35.168C270.788 35.168 272.342 33.852 272.342 31.57C272.342 29.274 270.788 27.958 269.066 27.958C267.358 27.958 265.804 29.274 265.804 31.57ZM267.456 31.57C267.456 30.184 268.058 29.274 269.066 29.274C270.074 29.274 270.69 30.184 270.69 31.57C270.69 32.942 270.074 33.852 269.066 33.852C268.058 33.852 267.456 32.942 267.456 31.57ZM273.516 31.57C273.516 33.838 274.622 35.168 276.344 35.168C277.086 35.168 277.786 34.762 278.29 34.258H278.346L278.458 35H279.788V25.116H278.178V27.608L278.234 28.714C277.702 28.252 277.212 27.958 276.428 27.958C274.93 27.958 273.516 29.33 273.516 31.57ZM275.182 31.556C275.182 30.114 275.896 29.288 276.778 29.288C277.24 29.288 277.702 29.442 278.178 29.862V33.068C277.716 33.6 277.268 33.838 276.736 33.838C275.742 33.838 275.182 33.04 275.182 31.556ZM281.768 32.438C281.768 34.174 282.412 35.168 283.882 35.168C284.82 35.168 285.492 34.706 286.094 33.992H286.136L286.262 35H287.578V28.126H285.968V32.83C285.45 33.502 285.044 33.782 284.442 33.782C283.7 33.782 283.378 33.362 283.378 32.228V28.126H281.768V32.438ZM289.17 31.57C289.17 33.852 290.612 35.168 292.488 35.168C293.272 35.168 294.098 34.86 294.742 34.286L294.07 33.264C293.692 33.572 293.216 33.852 292.656 33.852C291.578 33.852 290.822 32.942 290.822 31.57C290.822 30.184 291.592 29.274 292.698 29.274C293.132 29.274 293.496 29.456 293.86 29.778L294.63 28.756C294.168 28.308 293.496 27.958 292.614 27.958C290.78 27.958 289.17 29.274 289.17 31.57ZM296.323 32.676C296.323 34.16 296.91 35.168 298.507 35.168C299.053 35.168 299.529 35.042 299.907 34.916L299.627 33.726C299.431 33.81 299.151 33.88 298.913 33.88C298.255 33.88 297.947 33.488 297.947 32.676V29.4H299.697V28.126H297.947V26.25H296.603L296.407 28.126L295.343 28.196V29.4H296.323V32.676ZM303.594 31.57C303.594 33.838 304.7 35.168 306.422 35.168C307.164 35.168 307.864 34.762 308.368 34.258H308.424L308.536 35H309.866V25.116H308.256V27.608L308.312 28.714C307.78 28.252 307.29 27.958 306.506 27.958C305.008 27.958 303.594 29.33 303.594 31.57ZM305.26 31.556C305.26 30.114 305.974 29.288 306.856 29.288C307.318 29.288 307.78 29.442 308.256 29.862V33.068C307.794 33.6 307.346 33.838 306.814 33.838C305.82 33.838 305.26 33.04 305.26 31.556ZM311.623 33.152C311.623 34.356 312.463 35.168 313.667 35.168C314.479 35.168 315.179 34.762 315.795 34.244H315.837L315.963 35H317.279V30.926C317.279 29.008 316.439 27.958 314.717 27.958C313.625 27.958 312.659 28.378 311.903 28.854L312.491 29.932C313.093 29.568 313.737 29.26 314.423 29.26C315.347 29.26 315.655 29.876 315.669 30.604C312.855 30.912 311.623 31.682 311.623 33.152ZM313.191 33.026C313.191 32.34 313.807 31.85 315.669 31.612V33.152C315.165 33.628 314.731 33.908 314.171 33.908C313.597 33.908 313.191 33.642 313.191 33.026ZM319.483 32.676C319.483 34.16 320.071 35.168 321.667 35.168C322.213 35.168 322.689 35.042 323.067 34.916L322.787 33.726C322.591 33.81 322.311 33.88 322.073 33.88C321.415 33.88 321.107 33.488 321.107 32.676V29.4H322.857V28.126H321.107V26.25H319.763L319.567 28.126L318.503 28.196V29.4H319.483V32.676ZM323.804 33.152C323.804 34.356 324.644 35.168 325.848 35.168C326.66 35.168 327.36 34.762 327.976 34.244H328.018L328.144 35H329.46V30.926C329.46 29.008 328.62 27.958 326.898 27.958C325.806 27.958 324.84 28.378 324.084 28.854L324.672 29.932C325.274 29.568 325.918 29.26 326.604 29.26C327.528 29.26 327.836 29.876 327.85 30.604C325.036 30.912 323.804 31.682 323.804 33.152ZM325.372 33.026C325.372 32.34 325.988 31.85 327.85 31.612V33.152C327.346 33.628 326.912 33.908 326.352 33.908C325.778 33.908 325.372 33.642 325.372 33.026ZM331.426 35H332.7L332.84 34.3H332.882C333.456 34.86 334.128 35.168 334.758 35.168C336.284 35.168 337.698 33.81 337.698 31.444C337.698 29.33 336.704 27.958 334.982 27.958C334.282 27.958 333.568 28.308 332.994 28.812L333.036 27.664V25.116H331.426V35ZM333.036 33.264V30.058C333.568 29.54 334.044 29.288 334.548 29.288C335.584 29.288 336.032 30.1 336.032 31.472C336.032 33.026 335.332 33.838 334.422 33.838C334.016 33.838 333.526 33.684 333.036 33.264ZM338.871 33.152C338.871 34.356 339.711 35.168 340.915 35.168C341.727 35.168 342.427 34.762 343.043 34.244H343.085L343.211 35H344.527V30.926C344.527 29.008 343.687 27.958 341.965 27.958C340.873 27.958 339.907 28.378 339.151 28.854L339.739 29.932C340.341 29.568 340.985 29.26 341.671 29.26C342.595 29.26 342.903 29.876 342.917 30.604C340.103 30.912 338.871 31.682 338.871 33.152ZM340.439 33.026C340.439 32.34 341.055 31.85 342.917 31.612V33.152C342.413 33.628 341.979 33.908 341.419 33.908C340.845 33.908 340.439 33.642 340.439 33.026ZM345.807 34.216C346.479 34.762 347.473 35.168 348.411 35.168C350.147 35.168 351.085 34.216 351.085 33.04C351.085 31.752 350.049 31.304 349.111 30.954C348.369 30.688 347.683 30.464 347.683 29.932C347.683 29.498 348.005 29.176 348.691 29.176C349.237 29.176 349.727 29.414 350.203 29.764L350.945 28.784C350.385 28.35 349.615 27.958 348.663 27.958C347.123 27.958 346.157 28.812 346.157 30.016C346.157 31.164 347.179 31.682 348.089 32.018C348.817 32.298 349.559 32.55 349.559 33.124C349.559 33.6 349.209 33.95 348.467 33.95C347.767 33.95 347.179 33.656 346.563 33.18L345.807 34.216ZM352.074 31.57C352.074 33.838 353.558 35.168 355.462 35.168C356.33 35.168 357.156 34.86 357.814 34.426L357.268 33.418C356.764 33.74 356.26 33.922 355.672 33.922C354.566 33.922 353.782 33.222 353.642 31.976H358.01C358.052 31.808 358.08 31.528 358.08 31.22C358.08 29.302 357.1 27.958 355.238 27.958C353.628 27.958 352.074 29.33 352.074 31.57ZM353.628 30.954C353.768 29.806 354.468 29.204 355.28 29.204C356.218 29.204 356.68 29.862 356.68 30.954H353.628ZM359.478 34.076C359.478 34.706 359.94 35.168 360.528 35.168C361.116 35.168 361.564 34.706 361.564 34.076C361.564 33.446 361.116 32.984 360.528 32.984C359.94 32.984 359.478 33.446 359.478 34.076ZM368.318 35H369.942V27.216H372.574V25.844H365.672V27.216H368.318V35ZM373.946 35H375.556V30.198C376.13 29.638 376.522 29.344 377.124 29.344C377.88 29.344 378.202 29.764 378.202 30.898V35H379.812V30.688C379.812 28.952 379.168 27.958 377.698 27.958C376.76 27.958 376.074 28.448 375.5 28.994L375.556 27.664V25.116H373.946V35ZM382.564 26.922C383.138 26.922 383.558 26.544 383.558 26.012C383.558 25.466 383.138 25.088 382.564 25.088C381.99 25.088 381.57 25.466 381.57 26.012C381.57 26.544 381.99 26.922 382.564 26.922ZM381.752 35H383.362V28.126H381.752V35ZM384.731 34.216C385.403 34.762 386.397 35.168 387.335 35.168C389.071 35.168 390.009 34.216 390.009 33.04C390.009 31.752 388.973 31.304 388.035 30.954C387.293 30.688 386.607 30.464 386.607 29.932C386.607 29.498 386.929 29.176 387.615 29.176C388.161 29.176 388.651 29.414 389.127 29.764L389.869 28.784C389.309 28.35 388.539 27.958 387.587 27.958C386.047 27.958 385.081 28.812 385.081 30.016C385.081 31.164 386.103 31.682 387.013 32.018C387.741 32.298 388.483 32.55 388.483 33.124C388.483 33.6 388.133 33.95 387.391 33.95C386.691 33.95 386.103 33.656 385.487 33.18L384.731 34.216ZM394.317 35H395.927V30.198C396.459 29.624 396.949 29.344 397.369 29.344C398.097 29.344 398.433 29.764 398.433 30.898V35H400.043V30.198C400.575 29.624 401.051 29.344 401.485 29.344C402.199 29.344 402.535 29.764 402.535 30.898V35H404.159V30.688C404.159 28.952 403.487 27.958 402.031 27.958C401.163 27.958 400.477 28.49 399.819 29.19C399.497 28.42 398.923 27.958 397.915 27.958C397.061 27.958 396.389 28.448 395.815 29.064H395.759L395.647 28.126H394.317V35ZM405.668 31.57C405.668 33.838 407.152 35.168 409.056 35.168C409.924 35.168 410.75 34.86 411.408 34.426L410.862 33.418C410.358 33.74 409.854 33.922 409.266 33.922C408.16 33.922 407.376 33.222 407.236 31.976H411.604C411.646 31.808 411.674 31.528 411.674 31.22C411.674 29.302 410.694 27.958 408.832 27.958C407.222 27.958 405.668 29.33 405.668 31.57ZM407.222 30.954C407.362 29.806 408.062 29.204 408.874 29.204C409.812 29.204 410.274 29.862 410.274 30.954H407.222ZM412.753 33.152C412.753 34.356 413.593 35.168 414.797 35.168C415.609 35.168 416.309 34.762 416.925 34.244H416.967L417.093 35H418.409V30.926C418.409 29.008 417.569 27.958 415.847 27.958C414.755 27.958 413.789 28.378 413.033 28.854L413.621 29.932C414.223 29.568 414.867 29.26 415.553 29.26C416.477 29.26 416.785 29.876 416.799 30.604C413.985 30.912 412.753 31.682 412.753 33.152ZM414.321 33.026C414.321 32.34 414.937 31.85 416.799 31.612V33.152C416.295 33.628 415.861 33.908 415.301 33.908C414.727 33.908 414.321 33.642 414.321 33.026ZM420.376 35H421.986V30.198C422.56 29.638 422.952 29.344 423.554 29.344C424.31 29.344 424.632 29.764 424.632 30.898V35H426.242V30.688C426.242 28.952 425.598 27.958 424.128 27.958C423.19 27.958 422.49 28.448 421.874 29.05H421.818L421.706 28.126H420.376V35ZM427.524 34.216C428.196 34.762 429.19 35.168 430.128 35.168C431.864 35.168 432.802 34.216 432.802 33.04C432.802 31.752 431.766 31.304 430.828 30.954C430.086 30.688 429.4 30.464 429.4 29.932C429.4 29.498 429.722 29.176 430.408 29.176C430.954 29.176 431.444 29.414 431.92 29.764L432.662 28.784C432.102 28.35 431.332 27.958 430.38 27.958C428.84 27.958 427.874 28.812 427.874 30.016C427.874 31.164 428.896 31.682 429.806 32.018C430.534 32.298 431.276 32.55 431.276 33.124C431.276 33.6 430.926 33.95 430.184 33.95C429.484 33.95 428.896 33.656 428.28 33.18L427.524 34.216ZM437.348 32.676C437.348 34.16 437.936 35.168 439.532 35.168C440.078 35.168 440.554 35.042 440.932 34.916L440.652 33.726C440.456 33.81 440.176 33.88 439.938 33.88C439.28 33.88 438.972 33.488 438.972 32.676V29.4H440.722V28.126H438.972V26.25H437.628L437.432 28.126L436.368 28.196V29.4H437.348V32.676ZM442.168 35H443.778V30.198C444.352 29.638 444.744 29.344 445.346 29.344C446.102 29.344 446.424 29.764 446.424 30.898V35H448.034V30.688C448.034 28.952 447.39 27.958 445.92 27.958C444.982 27.958 444.296 28.448 443.722 28.994L443.778 27.664V25.116H442.168V35ZM449.681 33.152C449.681 34.356 450.521 35.168 451.725 35.168C452.537 35.168 453.237 34.762 453.853 34.244H453.895L454.021 35H455.337V30.926C455.337 29.008 454.497 27.958 452.775 27.958C451.683 27.958 450.717 28.378 449.961 28.854L450.549 29.932C451.151 29.568 451.795 29.26 452.481 29.26C453.405 29.26 453.713 29.876 453.727 30.604C450.913 30.912 449.681 31.682 449.681 33.152ZM451.249 33.026C451.249 32.34 451.865 31.85 453.727 31.612V33.152C453.223 33.628 452.789 33.908 452.229 33.908C451.655 33.908 451.249 33.642 451.249 33.026ZM457.541 32.676C457.541 34.16 458.129 35.168 459.725 35.168C460.271 35.168 460.747 35.042 461.125 34.916L460.845 33.726C460.649 33.81 460.369 33.88 460.131 33.88C459.473 33.88 459.165 33.488 459.165 32.676V29.4H460.915V28.126H459.165V26.25H457.821L457.625 28.126L456.561 28.196V29.4H457.541V32.676ZM466.045 26.922C466.619 26.922 467.039 26.544 467.039 26.012C467.039 25.466 466.619 25.088 466.045 25.088C465.471 25.088 465.051 25.466 465.051 26.012C465.051 26.544 465.471 26.922 466.045 26.922ZM465.233 35H466.843V28.126H465.233V35ZM469.135 32.676C469.135 34.16 469.723 35.168 471.319 35.168C471.865 35.168 472.341 35.042 472.719 34.916L472.439 33.726C472.243 33.81 471.963 33.88 471.725 33.88C471.067 33.88 470.759 33.488 470.759 32.676V29.4H472.509V28.126H470.759V26.25H469.415L469.219 28.126L468.155 28.196V29.4H469.135V32.676ZM473.27 34.216C473.942 34.762 474.936 35.168 475.874 35.168C477.61 35.168 478.548 34.216 478.548 33.04C478.548 31.752 477.512 31.304 476.574 30.954C475.832 30.688 475.146 30.464 475.146 29.932C475.146 29.498 475.468 29.176 476.154 29.176C476.7 29.176 477.19 29.414 477.666 29.764L478.408 28.784C477.848 28.35 477.078 27.958 476.126 27.958C474.586 27.958 473.62 28.812 473.62 30.016C473.62 31.164 474.642 31.682 475.552 32.018C476.28 32.298 477.022 32.55 477.022 33.124C477.022 33.6 476.672 33.95 475.93 33.95C475.23 33.95 474.642 33.656 474.026 33.18L473.27 34.216ZM482.786 32.438C482.786 34.174 483.43 35.168 484.9 35.168C485.838 35.168 486.51 34.706 487.112 33.992H487.154L487.28 35H488.596V28.126H486.986V32.83C486.468 33.502 486.062 33.782 485.46 33.782C484.718 33.782 484.396 33.362 484.396 32.228V28.126H482.786V32.438ZM490.635 35H492.245V30.198C492.819 29.638 493.211 29.344 493.813 29.344C494.569 29.344 494.891 29.764 494.891 30.898V35H496.501V30.688C496.501 28.952 495.857 27.958 494.387 27.958C493.449 27.958 492.749 28.448 492.133 29.05H492.077L491.965 28.126H490.635V35ZM499.281 26.922C499.855 26.922 500.275 26.544 500.275 26.012C500.275 25.466 499.855 25.088 499.281 25.088C498.707 25.088 498.287 25.466 498.287 26.012C498.287 26.544 498.707 26.922 499.281 26.922ZM498.469 35H500.079V28.126H498.469V35ZM502.371 32.676C502.371 34.16 502.959 35.168 504.555 35.168C505.101 35.168 505.577 35.042 505.955 34.916L505.675 33.726C505.479 33.81 505.199 33.88 504.961 33.88C504.303 33.88 503.995 33.488 503.995 32.676V29.4H505.745V28.126H503.995V26.25H502.651L502.455 28.126L501.391 28.196V29.4H502.371V32.676ZM506.506 34.216C507.178 34.762 508.172 35.168 509.11 35.168C510.846 35.168 511.784 34.216 511.784 33.04C511.784 31.752 510.748 31.304 509.81 30.954C509.068 30.688 508.382 30.464 508.382 29.932C508.382 29.498 508.704 29.176 509.39 29.176C509.936 29.176 510.426 29.414 510.902 29.764L511.644 28.784C511.084 28.35 510.314 27.958 509.362 27.958C507.822 27.958 506.856 28.812 506.856 30.016C506.856 31.164 507.878 31.682 508.788 32.018C509.516 32.298 510.258 32.55 510.258 33.124C510.258 33.6 509.908 33.95 509.166 33.95C508.466 33.95 507.878 33.656 507.262 33.18L506.506 34.216ZM515.798 33.152C515.798 34.356 516.638 35.168 517.842 35.168C518.654 35.168 519.354 34.762 519.97 34.244H520.012L520.138 35H521.454V30.926C521.454 29.008 520.614 27.958 518.892 27.958C517.8 27.958 516.834 28.378 516.078 28.854L516.666 29.932C517.268 29.568 517.912 29.26 518.598 29.26C519.522 29.26 519.83 29.876 519.844 30.604C517.03 30.912 515.798 31.682 515.798 33.152ZM517.366 33.026C517.366 32.34 517.982 31.85 519.844 31.612V33.152C519.34 33.628 518.906 33.908 518.346 33.908C517.772 33.908 517.366 33.642 517.366 33.026ZM523.42 35H525.03V30.198C525.604 29.638 525.996 29.344 526.598 29.344C527.354 29.344 527.676 29.764 527.676 30.898V35H529.286V30.688C529.286 28.952 528.642 27.958 527.172 27.958C526.234 27.958 525.534 28.448 524.918 29.05H524.862L524.75 28.126H523.42V35ZM530.834 31.57C530.834 33.838 531.94 35.168 533.662 35.168C534.404 35.168 535.104 34.762 535.608 34.258H535.664L535.776 35H537.106V25.116H535.496V27.608L535.552 28.714C535.02 28.252 534.53 27.958 533.746 27.958C532.248 27.958 530.834 29.33 530.834 31.57ZM532.5 31.556C532.5 30.114 533.214 29.288 534.096 29.288C534.558 29.288 535.02 29.442 535.496 29.862V33.068C535.034 33.6 534.586 33.838 534.054 33.838C533.06 33.838 532.5 33.04 532.5 31.556ZM68.574 49.57C68.574 51.852 70.016 53.168 71.892 53.168C72.676 53.168 73.502 52.86 74.146 52.286L73.474 51.264C73.096 51.572 72.62 51.852 72.06 51.852C70.982 51.852 70.226 50.942 70.226 49.57C70.226 48.184 70.996 47.274 72.102 47.274C72.536 47.274 72.9 47.456 73.264 47.778L74.034 46.756C73.572 46.308 72.9 45.958 72.018 45.958C70.184 45.958 68.574 47.274 68.574 49.57ZM74.699 49.57C74.699 51.852 76.253 53.168 77.961 53.168C79.683 53.168 81.237 51.852 81.237 49.57C81.237 47.274 79.683 45.958 77.961 45.958C76.253 45.958 74.699 47.274 74.699 49.57ZM76.351 49.57C76.351 48.184 76.953 47.274 77.961 47.274C78.969 47.274 79.585 48.184 79.585 49.57C79.585 50.942 78.969 51.852 77.961 51.852C76.953 51.852 76.351 50.942 76.351 49.57ZM82.8306 53H84.4406V48.198C85.0146 47.638 85.4066 47.344 86.0086 47.344C86.7646 47.344 87.0866 47.764 87.0866 48.898V53H88.6966V48.688C88.6966 46.952 88.0526 45.958 86.5826 45.958C85.6446 45.958 84.9446 46.448 84.3286 47.05H84.2726L84.1606 46.126H82.8306V53ZM92.2046 53H94.0666L96.4046 46.126H94.8506L93.7586 49.696C93.5626 50.368 93.3666 51.068 93.1706 51.768H93.1146C92.9326 51.068 92.7226 50.368 92.5406 49.696L91.4486 46.126H89.8106L92.2046 53ZM97.0662 49.57C97.0662 51.838 98.5502 53.168 100.454 53.168C101.322 53.168 102.148 52.86 102.806 52.426L102.26 51.418C101.756 51.74 101.252 51.922 100.664 51.922C99.5582 51.922 98.7742 51.222 98.6342 49.976H103.002C103.044 49.808 103.072 49.528 103.072 49.22C103.072 47.302 102.092 45.958 100.23 45.958C98.6202 45.958 97.0662 47.33 97.0662 49.57ZM98.6202 48.954C98.7602 47.806 99.4602 47.204 100.272 47.204C101.21 47.204 101.672 47.862 101.672 48.954H98.6202ZM104.61 53H106.22V48.8C106.64 47.764 107.298 47.386 107.844 47.386C108.138 47.386 108.32 47.428 108.558 47.498L108.838 46.098C108.628 46 108.404 45.958 108.054 45.958C107.326 45.958 106.598 46.448 106.108 47.344H106.052L105.94 46.126H104.61V53ZM109.01 52.216C109.682 52.762 110.676 53.168 111.614 53.168C113.35 53.168 114.288 52.216 114.288 51.04C114.288 49.752 113.252 49.304 112.314 48.954C111.572 48.688 110.886 48.464 110.886 47.932C110.886 47.498 111.208 47.176 111.894 47.176C112.44 47.176 112.93 47.414 113.406 47.764L114.148 46.784C113.588 46.35 112.818 45.958 111.866 45.958C110.326 45.958 109.36 46.812 109.36 48.016C109.36 49.164 110.382 49.682 111.292 50.018C112.02 50.298 112.762 50.55 112.762 51.124C112.762 51.6 112.412 51.95 111.67 51.95C110.97 51.95 110.382 51.656 109.766 51.18L109.01 52.216ZM116.537 44.922C117.111 44.922 117.531 44.544 117.531 44.012C117.531 43.466 117.111 43.088 116.537 43.088C115.963 43.088 115.543 43.466 115.543 44.012C115.543 44.544 115.963 44.922 116.537 44.922ZM115.725 53H117.335V46.126H115.725V53ZM118.941 49.57C118.941 51.852 120.495 53.168 122.203 53.168C123.925 53.168 125.479 51.852 125.479 49.57C125.479 47.274 123.925 45.958 122.203 45.958C120.495 45.958 118.941 47.274 118.941 49.57ZM120.593 49.57C120.593 48.184 121.195 47.274 122.203 47.274C123.211 47.274 123.827 48.184 123.827 49.57C123.827 50.942 123.211 51.852 122.203 51.852C121.195 51.852 120.593 50.942 120.593 49.57ZM127.073 53H128.683V48.198C129.257 47.638 129.649 47.344 130.251 47.344C131.007 47.344 131.329 47.764 131.329 48.898V53H132.939V48.688C132.939 46.952 132.295 45.958 130.825 45.958C129.887 45.958 129.187 46.448 128.571 47.05H128.515L128.403 46.126H127.073V53ZM134.221 52.216C134.893 52.762 135.887 53.168 136.825 53.168C138.561 53.168 139.499 52.216 139.499 51.04C139.499 49.752 138.463 49.304 137.525 48.954C136.783 48.688 136.097 48.464 136.097 47.932C136.097 47.498 136.419 47.176 137.105 47.176C137.651 47.176 138.141 47.414 138.617 47.764L139.359 46.784C138.799 46.35 138.029 45.958 137.077 45.958C135.537 45.958 134.571 46.812 134.571 48.016C134.571 49.164 135.593 49.682 136.503 50.018C137.231 50.298 137.973 50.55 137.973 51.124C137.973 51.6 137.623 51.95 136.881 51.95C136.181 51.95 135.593 51.656 134.977 51.18L134.221 52.216ZM143.807 53H145.417V48.198C145.991 47.638 146.383 47.344 146.985 47.344C147.741 47.344 148.063 47.764 148.063 48.898V53H149.673V48.688C149.673 46.952 149.029 45.958 147.559 45.958C146.621 45.958 145.935 46.448 145.361 46.994L145.417 45.664V43.116H143.807V53ZM151.32 51.152C151.32 52.356 152.16 53.168 153.364 53.168C154.176 53.168 154.876 52.762 155.492 52.244H155.534L155.66 53H156.976V48.926C156.976 47.008 156.136 45.958 154.414 45.958C153.322 45.958 152.356 46.378 151.6 46.854L152.188 47.932C152.79 47.568 153.434 47.26 154.12 47.26C155.044 47.26 155.352 47.876 155.366 48.604C152.552 48.912 151.32 49.682 151.32 51.152ZM152.888 51.026C152.888 50.34 153.504 49.85 155.366 49.612V51.152C154.862 51.628 154.428 51.908 153.868 51.908C153.294 51.908 152.888 51.642 152.888 51.026ZM160.482 53H162.344L164.682 46.126H163.128L162.036 49.696C161.84 50.368 161.644 51.068 161.448 51.768H161.392C161.21 51.068 161 50.368 160.818 49.696L159.726 46.126H158.088L160.482 53ZM165.344 49.57C165.344 51.838 166.828 53.168 168.732 53.168C169.6 53.168 170.426 52.86 171.084 52.426L170.538 51.418C170.034 51.74 169.53 51.922 168.942 51.922C167.836 51.922 167.052 51.222 166.912 49.976H171.28C171.322 49.808 171.35 49.528 171.35 49.22C171.35 47.302 170.37 45.958 168.508 45.958C166.898 45.958 165.344 47.33 165.344 49.57ZM166.898 48.954C167.038 47.806 167.738 47.204 168.55 47.204C169.488 47.204 169.95 47.862 169.95 48.954H166.898ZM175.758 53H177.032L177.172 52.3H177.214C177.788 52.86 178.46 53.168 179.09 53.168C180.616 53.168 182.03 51.81 182.03 49.444C182.03 47.33 181.036 45.958 179.314 45.958C178.614 45.958 177.9 46.308 177.326 46.812L177.368 45.664V43.116H175.758V53ZM177.368 51.264V48.058C177.9 47.54 178.376 47.288 178.88 47.288C179.916 47.288 180.364 48.1 180.364 49.472C180.364 51.026 179.664 51.838 178.754 51.838C178.348 51.838 177.858 51.684 177.368 51.264ZM183.213 49.57C183.213 51.838 184.697 53.168 186.601 53.168C187.469 53.168 188.295 52.86 188.953 52.426L188.407 51.418C187.903 51.74 187.399 51.922 186.811 51.922C185.705 51.922 184.921 51.222 184.781 49.976H189.149C189.191 49.808 189.219 49.528 189.219 49.22C189.219 47.302 188.239 45.958 186.377 45.958C184.767 45.958 183.213 47.33 183.213 49.57ZM184.767 48.954C184.907 47.806 185.607 47.204 186.419 47.204C187.357 47.204 187.819 47.862 187.819 48.954H184.767ZM190.308 49.57C190.308 51.838 191.792 53.168 193.696 53.168C194.564 53.168 195.39 52.86 196.048 52.426L195.502 51.418C194.998 51.74 194.494 51.922 193.906 51.922C192.8 51.922 192.016 51.222 191.876 49.976H196.244C196.286 49.808 196.314 49.528 196.314 49.22C196.314 47.302 195.334 45.958 193.472 45.958C191.862 45.958 190.308 47.33 190.308 49.57ZM191.862 48.954C192.002 47.806 192.702 47.204 193.514 47.204C194.452 47.204 194.914 47.862 194.914 48.954H191.862ZM197.852 53H199.462V48.198C200.036 47.638 200.428 47.344 201.03 47.344C201.786 47.344 202.108 47.764 202.108 48.898V53H203.718V48.688C203.718 46.952 203.074 45.958 201.604 45.958C200.666 45.958 199.966 46.448 199.35 47.05H199.294L199.182 46.126H197.852V53ZM208.263 51.152C208.263 52.356 209.103 53.168 210.307 53.168C211.119 53.168 211.819 52.762 212.435 52.244H212.477L212.603 53H213.919V48.926C213.919 47.008 213.079 45.958 211.357 45.958C210.265 45.958 209.299 46.378 208.543 46.854L209.131 47.932C209.733 47.568 210.377 47.26 211.063 47.26C211.987 47.26 212.295 47.876 212.309 48.604C209.495 48.912 208.263 49.682 208.263 51.152ZM209.831 51.026C209.831 50.34 210.447 49.85 212.309 49.612V51.152C211.805 51.628 211.371 51.908 210.811 51.908C210.237 51.908 209.831 51.642 209.831 51.026ZM215.885 51.236C215.885 52.426 216.305 53.168 217.453 53.168C217.831 53.168 218.111 53.112 218.307 53.028L218.097 51.824C217.971 51.852 217.915 51.852 217.845 51.852C217.677 51.852 217.495 51.712 217.495 51.32V43.116H215.885V51.236ZM219.686 53H221.296V48.8C221.716 47.764 222.374 47.386 222.92 47.386C223.214 47.386 223.396 47.428 223.634 47.498L223.914 46.098C223.704 46 223.48 45.958 223.13 45.958C222.402 45.958 221.674 46.448 221.184 47.344H221.128L221.016 46.126H219.686V53ZM224.324 49.57C224.324 51.838 225.808 53.168 227.712 53.168C228.58 53.168 229.406 52.86 230.064 52.426L229.518 51.418C229.014 51.74 228.51 51.922 227.922 51.922C226.816 51.922 226.032 51.222 225.892 49.976H230.26C230.302 49.808 230.33 49.528 230.33 49.22C230.33 47.302 229.35 45.958 227.488 45.958C225.878 45.958 224.324 47.33 224.324 49.57ZM225.878 48.954C226.018 47.806 226.718 47.204 227.53 47.204C228.468 47.204 228.93 47.862 228.93 48.954H225.878ZM231.41 51.152C231.41 52.356 232.25 53.168 233.454 53.168C234.266 53.168 234.966 52.762 235.582 52.244H235.624L235.75 53H237.066V48.926C237.066 47.008 236.226 45.958 234.504 45.958C233.412 45.958 232.446 46.378 231.69 46.854L232.278 47.932C232.88 47.568 233.524 47.26 234.21 47.26C235.134 47.26 235.442 47.876 235.456 48.604C232.642 48.912 231.41 49.682 231.41 51.152ZM232.978 51.026C232.978 50.34 233.594 49.85 235.456 49.612V51.152C234.952 51.628 234.518 51.908 233.958 51.908C233.384 51.908 232.978 51.642 232.978 51.026ZM238.612 49.57C238.612 51.838 239.718 53.168 241.44 53.168C242.182 53.168 242.882 52.762 243.386 52.258H243.442L243.554 53H244.884V43.116H243.274V45.608L243.33 46.714C242.798 46.252 242.308 45.958 241.524 45.958C240.026 45.958 238.612 47.33 238.612 49.57ZM240.278 49.556C240.278 48.114 240.992 47.288 241.874 47.288C242.336 47.288 242.798 47.442 243.274 47.862V51.068C242.812 51.6 242.364 51.838 241.832 51.838C240.838 51.838 240.278 51.04 240.278 49.556ZM246.794 54.428L246.5 55.688C246.752 55.772 247.018 55.828 247.396 55.828C248.894 55.828 249.608 54.862 250.182 53.308L252.674 46.126H251.12L250.084 49.5C249.916 50.116 249.734 50.802 249.566 51.432H249.51C249.3 50.788 249.104 50.102 248.908 49.5L247.718 46.126H246.08L248.782 52.916L248.656 53.35C248.432 54.036 248.012 54.526 247.284 54.526C247.116 54.526 246.92 54.47 246.794 54.428ZM256.051 52.216C256.723 52.762 257.717 53.168 258.655 53.168C260.391 53.168 261.329 52.216 261.329 51.04C261.329 49.752 260.293 49.304 259.355 48.954C258.613 48.688 257.927 48.464 257.927 47.932C257.927 47.498 258.249 47.176 258.935 47.176C259.481 47.176 259.971 47.414 260.447 47.764L261.189 46.784C260.629 46.35 259.859 45.958 258.907 45.958C257.367 45.958 256.401 46.812 256.401 48.016C256.401 49.164 257.423 49.682 258.333 50.018C259.061 50.298 259.803 50.55 259.803 51.124C259.803 51.6 259.453 51.95 258.711 51.95C258.011 51.95 257.423 51.656 256.807 51.18L256.051 52.216ZM262.318 49.57C262.318 51.838 263.802 53.168 265.706 53.168C266.574 53.168 267.4 52.86 268.058 52.426L267.512 51.418C267.008 51.74 266.504 51.922 265.916 51.922C264.81 51.922 264.026 51.222 263.886 49.976H268.254C268.296 49.808 268.324 49.528 268.324 49.22C268.324 47.302 267.344 45.958 265.482 45.958C263.872 45.958 262.318 47.33 262.318 49.57ZM263.872 48.954C264.012 47.806 264.712 47.204 265.524 47.204C266.462 47.204 266.924 47.862 266.924 48.954H263.872ZM269.881 50.676C269.881 52.16 270.469 53.168 272.065 53.168C272.611 53.168 273.087 53.042 273.465 52.916L273.185 51.726C272.989 51.81 272.709 51.88 272.471 51.88C271.813 51.88 271.505 51.488 271.505 50.676V47.4H273.255V46.126H271.505V44.25H270.161L269.965 46.126L268.901 46.196V47.4H269.881V50.676ZM277.503 50.438C277.503 52.174 278.147 53.168 279.617 53.168C280.555 53.168 281.227 52.706 281.829 51.992H281.871L281.997 53H283.313V46.126H281.703V50.83C281.185 51.502 280.779 51.782 280.177 51.782C279.435 51.782 279.113 51.362 279.113 50.228V46.126H277.503V50.438ZM286.92 52.412C287.48 52.888 288.082 53.168 288.684 53.168C290.21 53.168 291.624 51.81 291.624 49.458C291.624 47.33 290.63 45.958 288.922 45.958C288.166 45.958 287.424 46.364 286.85 46.854H286.794L286.682 46.126H285.352V55.716H286.962V53.56L286.92 52.412ZM286.962 51.264V48.058C287.494 47.54 287.97 47.288 288.474 47.288C289.51 47.288 289.958 48.1 289.958 49.472C289.958 51.026 289.258 51.838 288.348 51.838C287.942 51.838 287.466 51.684 286.962 51.264ZM292.978 52.076C292.978 52.706 293.44 53.168 294.028 53.168C294.616 53.168 295.064 52.706 295.064 52.076C295.064 51.446 294.616 50.984 294.028 50.984C293.44 50.984 292.978 51.446 292.978 52.076ZM301.496 53H303.12V49.598L305.878 43.844H304.184L303.19 46.182C302.924 46.868 302.63 47.498 302.336 48.198H302.28C302 47.498 301.734 46.868 301.468 46.182L300.474 43.844H298.738L301.496 49.598V53ZM305.699 49.57C305.699 51.852 307.253 53.168 308.961 53.168C310.683 53.168 312.237 51.852 312.237 49.57C312.237 47.274 310.683 45.958 308.961 45.958C307.253 45.958 305.699 47.274 305.699 49.57ZM307.351 49.57C307.351 48.184 307.953 47.274 308.961 47.274C309.969 47.274 310.585 48.184 310.585 49.57C310.585 50.942 309.969 51.852 308.961 51.852C307.953 51.852 307.351 50.942 307.351 49.57ZM313.761 50.438C313.761 52.174 314.405 53.168 315.875 53.168C316.813 53.168 317.485 52.706 318.087 51.992H318.129L318.255 53H319.571V46.126H317.961V50.83C317.443 51.502 317.037 51.782 316.435 51.782C315.693 51.782 315.371 51.362 315.371 50.228V46.126H313.761V50.438ZM324.033 49.57C324.033 51.852 325.475 53.168 327.351 53.168C328.135 53.168 328.961 52.86 329.605 52.286L328.933 51.264C328.555 51.572 328.079 51.852 327.519 51.852C326.441 51.852 325.685 50.942 325.685 49.57C325.685 48.184 326.455 47.274 327.561 47.274C327.995 47.274 328.359 47.456 328.723 47.778L329.493 46.756C329.031 46.308 328.359 45.958 327.477 45.958C325.643 45.958 324.033 47.274 324.033 49.57ZM330.517 51.152C330.517 52.356 331.357 53.168 332.561 53.168C333.373 53.168 334.073 52.762 334.689 52.244H334.731L334.857 53H336.173V48.926C336.173 47.008 335.333 45.958 333.611 45.958C332.519 45.958 331.553 46.378 330.797 46.854L331.385 47.932C331.987 47.568 332.631 47.26 333.317 47.26C334.241 47.26 334.549 47.876 334.563 48.604C331.749 48.912 330.517 49.682 330.517 51.152ZM332.085 51.026C332.085 50.34 332.701 49.85 334.563 49.612V51.152C334.059 51.628 333.625 51.908 333.065 51.908C332.491 51.908 332.085 51.642 332.085 51.026ZM338.139 53H339.749V48.198C340.323 47.638 340.715 47.344 341.317 47.344C342.073 47.344 342.395 47.764 342.395 48.898V53H344.005V48.688C344.005 46.952 343.361 45.958 341.891 45.958C340.953 45.958 340.253 46.448 339.637 47.05H339.581L339.469 46.126H338.139V53ZM348.55 51.152C348.55 52.356 349.39 53.168 350.594 53.168C351.406 53.168 352.106 52.762 352.722 52.244H352.764L352.89 53H354.206V48.926C354.206 47.008 353.366 45.958 351.644 45.958C350.552 45.958 349.586 46.378 348.83 46.854L349.418 47.932C350.02 47.568 350.664 47.26 351.35 47.26C352.274 47.26 352.582 47.876 352.596 48.604C349.782 48.912 348.55 49.682 348.55 51.152ZM350.118 51.026C350.118 50.34 350.734 49.85 352.596 49.612V51.152C352.092 51.628 351.658 51.908 351.098 51.908C350.524 51.908 350.118 51.642 350.118 51.026ZM355.752 49.57C355.752 51.838 356.858 53.168 358.58 53.168C359.322 53.168 360.022 52.762 360.526 52.258H360.582L360.694 53H362.024V43.116H360.414V45.608L360.47 46.714C359.938 46.252 359.448 45.958 358.664 45.958C357.166 45.958 355.752 47.33 355.752 49.57ZM357.418 49.556C357.418 48.114 358.132 47.288 359.014 47.288C359.476 47.288 359.938 47.442 360.414 47.862V51.068C359.952 51.6 359.504 51.838 358.972 51.838C357.978 51.838 357.418 51.04 357.418 49.556ZM364.089 53.378C364.089 54.176 363.921 54.61 363.305 54.61C363.095 54.61 362.899 54.554 362.717 54.498L362.409 55.702C362.675 55.8 363.025 55.884 363.529 55.884C365.153 55.884 365.713 54.806 365.713 53.35V46.126H364.089V53.378ZM364.901 44.922C365.475 44.922 365.909 44.544 365.909 44.012C365.909 43.466 365.475 43.088 364.901 43.088C364.341 43.088 363.907 43.466 363.907 44.012C363.907 44.544 364.341 44.922 364.901 44.922ZM367.682 50.438C367.682 52.174 368.326 53.168 369.796 53.168C370.734 53.168 371.406 52.706 372.008 51.992H372.05L372.176 53H373.492V46.126H371.882V50.83C371.364 51.502 370.958 51.782 370.356 51.782C369.614 51.782 369.292 51.362 369.292 50.228V46.126H367.682V50.438ZM374.846 52.216C375.518 52.762 376.512 53.168 377.45 53.168C379.186 53.168 380.124 52.216 380.124 51.04C380.124 49.752 379.088 49.304 378.15 48.954C377.408 48.688 376.722 48.464 376.722 47.932C376.722 47.498 377.044 47.176 377.73 47.176C378.276 47.176 378.766 47.414 379.242 47.764L379.984 46.784C379.424 46.35 378.654 45.958 377.702 45.958C376.162 45.958 375.196 46.812 375.196 48.016C375.196 49.164 376.218 49.682 377.128 50.018C377.856 50.298 378.598 50.55 378.598 51.124C378.598 51.6 378.248 51.95 377.506 51.95C376.806 51.95 376.218 51.656 375.602 51.18L374.846 52.216ZM381.799 50.676C381.799 52.16 382.387 53.168 383.983 53.168C384.529 53.168 385.005 53.042 385.383 52.916L385.103 51.726C384.907 51.81 384.627 51.88 384.389 51.88C383.731 51.88 383.423 51.488 383.423 50.676V47.4H385.173V46.126H383.423V44.25H382.079L381.883 46.126L380.819 46.196V47.4H381.799V50.676ZM389.729 50.676C389.729 52.16 390.317 53.168 391.913 53.168C392.459 53.168 392.935 53.042 393.313 52.916L393.033 51.726C392.837 51.81 392.557 51.88 392.319 51.88C391.661 51.88 391.353 51.488 391.353 50.676V47.4H393.103V46.126H391.353V44.25H390.009L389.813 46.126L388.749 46.196V47.4H389.729V50.676ZM394.549 53H396.159V48.198C396.733 47.638 397.125 47.344 397.727 47.344C398.483 47.344 398.805 47.764 398.805 48.898V53H400.415V48.688C400.415 46.952 399.771 45.958 398.301 45.958C397.363 45.958 396.677 46.448 396.103 46.994L396.159 45.664V43.116H394.549V53ZM401.908 49.57C401.908 51.838 403.392 53.168 405.296 53.168C406.164 53.168 406.99 52.86 407.648 52.426L407.102 51.418C406.598 51.74 406.094 51.922 405.506 51.922C404.4 51.922 403.616 51.222 403.476 49.976H407.844C407.886 49.808 407.914 49.528 407.914 49.22C407.914 47.302 406.934 45.958 405.072 45.958C403.462 45.958 401.908 47.33 401.908 49.57ZM403.462 48.954C403.602 47.806 404.302 47.204 405.114 47.204C406.052 47.204 406.514 47.862 406.514 48.954H403.462ZM409.452 53H411.062V48.198C411.594 47.624 412.084 47.344 412.504 47.344C413.232 47.344 413.568 47.764 413.568 48.898V53H415.178V48.198C415.71 47.624 416.186 47.344 416.62 47.344C417.334 47.344 417.67 47.764 417.67 48.898V53H419.294V48.688C419.294 46.952 418.622 45.958 417.166 45.958C416.298 45.958 415.612 46.49 414.954 47.19C414.632 46.42 414.058 45.958 413.05 45.958C412.196 45.958 411.524 46.448 410.95 47.064H410.894L410.782 46.126H409.452V53ZM424.934 44.922C425.508 44.922 425.928 44.544 425.928 44.012C425.928 43.466 425.508 43.088 424.934 43.088C424.36 43.088 423.94 43.466 423.94 44.012C423.94 44.544 424.36 44.922 424.934 44.922ZM424.122 53H425.732V46.126H424.122V53ZM427.786 53H429.396V48.198C429.97 47.638 430.362 47.344 430.964 47.344C431.72 47.344 432.042 47.764 432.042 48.898V53H433.652V48.688C433.652 46.952 433.008 45.958 431.538 45.958C430.6 45.958 429.9 46.448 429.284 47.05H429.228L429.116 46.126H427.786V53ZM438.729 50.676C438.729 52.16 439.317 53.168 440.913 53.168C441.459 53.168 441.935 53.042 442.313 52.916L442.033 51.726C441.837 51.81 441.557 51.88 441.319 51.88C440.661 51.88 440.353 51.488 440.353 50.676V47.4H442.103V46.126H440.353V44.25H439.009L438.813 46.126L437.749 46.196V47.4H438.729V50.676ZM443.549 53H445.159V48.198C445.733 47.638 446.125 47.344 446.727 47.344C447.483 47.344 447.805 47.764 447.805 48.898V53H449.415V48.688C449.415 46.952 448.771 45.958 447.301 45.958C446.363 45.958 445.677 46.448 445.103 46.994L445.159 45.664V43.116H443.549V53ZM450.908 49.57C450.908 51.838 452.392 53.168 454.296 53.168C455.164 53.168 455.99 52.86 456.648 52.426L456.102 51.418C455.598 51.74 455.094 51.922 454.506 51.922C453.4 51.922 452.616 51.222 452.476 49.976H456.844C456.886 49.808 456.914 49.528 456.914 49.22C456.914 47.302 455.934 45.958 454.072 45.958C452.462 45.958 450.908 47.33 450.908 49.57ZM452.462 48.954C452.602 47.806 453.302 47.204 454.114 47.204C455.052 47.204 455.514 47.862 455.514 48.954H452.462ZM462.891 52.412C463.451 52.888 464.053 53.168 464.655 53.168C466.181 53.168 467.595 51.81 467.595 49.458C467.595 47.33 466.601 45.958 464.893 45.958C464.137 45.958 463.395 46.364 462.821 46.854H462.765L462.653 46.126H461.323V55.716H462.933V53.56L462.891 52.412ZM462.933 51.264V48.058C463.465 47.54 463.941 47.288 464.445 47.288C465.481 47.288 465.929 48.1 465.929 49.472C465.929 51.026 465.229 51.838 464.319 51.838C463.913 51.838 463.437 51.684 462.933 51.264ZM469.225 53H470.835V48.8C471.255 47.764 471.913 47.386 472.459 47.386C472.753 47.386 472.935 47.428 473.173 47.498L473.453 46.098C473.243 46 473.019 45.958 472.669 45.958C471.941 45.958 471.213 46.448 470.723 47.344H470.667L470.555 46.126H469.225V53ZM473.863 49.57C473.863 51.852 475.417 53.168 477.125 53.168C478.847 53.168 480.401 51.852 480.401 49.57C480.401 47.274 478.847 45.958 477.125 45.958C475.417 45.958 473.863 47.274 473.863 49.57ZM475.515 49.57C475.515 48.184 476.117 47.274 477.125 47.274C478.133 47.274 478.749 48.184 478.749 49.57C478.749 50.942 478.133 51.852 477.125 51.852C476.117 51.852 475.515 50.942 475.515 49.57ZM481.575 49.57C481.575 51.838 482.681 53.168 484.403 53.168C485.145 53.168 485.845 52.762 486.349 52.258H486.405L486.517 53H487.847V43.116H486.237V45.608L486.293 46.714C485.761 46.252 485.271 45.958 484.487 45.958C482.989 45.958 481.575 47.33 481.575 49.57ZM483.241 49.556C483.241 48.114 483.955 47.288 484.837 47.288C485.299 47.288 485.761 47.442 486.237 47.862V51.068C485.775 51.6 485.327 51.838 484.795 51.838C483.801 51.838 483.241 51.04 483.241 49.556ZM489.827 50.438C489.827 52.174 490.471 53.168 491.941 53.168C492.879 53.168 493.551 52.706 494.153 51.992H494.195L494.321 53H495.637V46.126H494.027V50.83C493.509 51.502 493.103 51.782 492.501 51.782C491.759 51.782 491.437 51.362 491.437 50.228V46.126H489.827V50.438ZM497.228 49.57C497.228 51.852 498.67 53.168 500.546 53.168C501.33 53.168 502.156 52.86 502.8 52.286L502.128 51.264C501.75 51.572 501.274 51.852 500.714 51.852C499.636 51.852 498.88 50.942 498.88 49.57C498.88 48.184 499.65 47.274 500.756 47.274C501.19 47.274 501.554 47.456 501.918 47.778L502.688 46.756C502.226 46.308 501.554 45.958 500.672 45.958C498.838 45.958 497.228 47.274 497.228 49.57ZM504.381 50.676C504.381 52.16 504.969 53.168 506.565 53.168C507.111 53.168 507.587 53.042 507.965 52.916L507.685 51.726C507.489 51.81 507.209 51.88 506.971 51.88C506.313 51.88 506.005 51.488 506.005 50.676V47.4H507.755V46.126H506.005V44.25H504.661L504.465 46.126L503.401 46.196V47.4H504.381V50.676ZM508.516 52.216C509.188 52.762 510.182 53.168 511.12 53.168C512.856 53.168 513.794 52.216 513.794 51.04C513.794 49.752 512.758 49.304 511.82 48.954C511.078 48.688 510.392 48.464 510.392 47.932C510.392 47.498 510.714 47.176 511.4 47.176C511.946 47.176 512.436 47.414 512.912 47.764L513.654 46.784C513.094 46.35 512.324 45.958 511.372 45.958C509.832 45.958 508.866 46.812 508.866 48.016C508.866 49.164 509.888 49.682 510.798 50.018C511.526 50.298 512.268 50.55 512.268 51.124C512.268 51.6 511.918 51.95 511.176 51.95C510.476 51.95 509.888 51.656 509.272 51.18L508.516 52.216ZM517.416 52.216C518.088 52.762 519.082 53.168 520.02 53.168C521.756 53.168 522.694 52.216 522.694 51.04C522.694 49.752 521.658 49.304 520.72 48.954C519.978 48.688 519.292 48.464 519.292 47.932C519.292 47.498 519.614 47.176 520.3 47.176C520.846 47.176 521.336 47.414 521.812 47.764L522.554 46.784C521.994 46.35 521.224 45.958 520.272 45.958C518.732 45.958 517.766 46.812 517.766 48.016C517.766 49.164 518.788 49.682 519.698 50.018C520.426 50.298 521.168 50.55 521.168 51.124C521.168 51.6 520.818 51.95 520.076 51.95C519.376 51.95 518.788 51.656 518.172 51.18L517.416 52.216ZM523.683 49.57C523.683 51.838 525.167 53.168 527.071 53.168C527.939 53.168 528.765 52.86 529.423 52.426L528.877 51.418C528.373 51.74 527.869 51.922 527.281 51.922C526.175 51.922 525.391 51.222 525.251 49.976H529.619C529.661 49.808 529.689 49.528 529.689 49.22C529.689 47.302 528.709 45.958 526.847 45.958C525.237 45.958 523.683 47.33 523.683 49.57ZM525.237 48.954C525.377 47.806 526.077 47.204 526.889 47.204C527.827 47.204 528.289 47.862 528.289 48.954H525.237ZM530.779 49.57C530.779 51.852 532.221 53.168 534.097 53.168C534.881 53.168 535.707 52.86 536.351 52.286L535.679 51.264C535.301 51.572 534.825 51.852 534.265 51.852C533.187 51.852 532.431 50.942 532.431 49.57C532.431 48.184 533.201 47.274 534.307 47.274C534.741 47.274 535.105 47.456 535.469 47.778L536.239 46.756C535.777 46.308 535.105 45.958 534.223 45.958C532.389 45.958 530.779 47.274 530.779 49.57ZM537.932 50.676C537.932 52.16 538.52 53.168 540.116 53.168C540.662 53.168 541.138 53.042 541.516 52.916L541.236 51.726C541.04 51.81 540.76 51.88 540.522 51.88C539.864 51.88 539.556 51.488 539.556 50.676V47.4H541.306V46.126H539.556V44.25H538.212L538.016 46.126L536.952 46.196V47.4H537.932V50.676ZM543.564 44.922C544.138 44.922 544.558 44.544 544.558 44.012C544.558 43.466 544.138 43.088 543.564 43.088C542.99 43.088 542.57 43.466 542.57 44.012C542.57 44.544 542.99 44.922 543.564 44.922ZM542.752 53H544.362V46.126H542.752V53ZM545.969 49.57C545.969 51.852 547.523 53.168 549.231 53.168C550.953 53.168 552.507 51.852 552.507 49.57C552.507 47.274 550.953 45.958 549.231 45.958C547.523 45.958 545.969 47.274 545.969 49.57ZM547.621 49.57C547.621 48.184 548.223 47.274 549.231 47.274C550.239 47.274 550.855 48.184 550.855 49.57C550.855 50.942 550.239 51.852 549.231 51.852C548.223 51.852 547.621 50.942 547.621 49.57ZM554.1 53H555.71V48.198C556.284 47.638 556.676 47.344 557.278 47.344C558.034 47.344 558.356 47.764 558.356 48.898V53H559.966V48.688C559.966 46.952 559.322 45.958 557.852 45.958C556.914 45.958 556.214 46.448 555.598 47.05H555.542L555.43 46.126H554.1V53ZM70.926 73.492L71.934 73.044C70.884 71.252 70.394 69.166 70.394 67.108C70.394 65.05 70.884 62.964 71.934 61.172L70.926 60.724C69.764 62.628 69.078 64.644 69.078 67.108C69.078 69.572 69.764 71.588 70.926 73.492ZM73.2671 69.152C73.2671 70.356 74.1071 71.168 75.3111 71.168C76.1231 71.168 76.8231 70.762 77.4391 70.244H77.4811L77.6071 71H78.9231V66.926C78.9231 65.008 78.0831 63.958 76.3611 63.958C75.2691 63.958 74.3031 64.378 73.5471 64.854L74.1351 65.932C74.7371 65.568 75.3811 65.26 76.0671 65.26C76.9911 65.26 77.2991 65.876 77.3131 66.604C74.4991 66.912 73.2671 67.682 73.2671 69.152ZM74.8351 69.026C74.8351 68.34 75.4511 67.85 77.3131 67.612V69.152C76.8091 69.628 76.3751 69.908 75.8151 69.908C75.2411 69.908 74.8351 69.642 74.8351 69.026ZM82.4292 71H84.2912L86.6292 64.126H85.0752L83.9832 67.696C83.7872 68.368 83.5912 69.068 83.3952 69.768H83.3392C83.1572 69.068 82.9472 68.368 82.7652 67.696L81.6732 64.126H80.0352L82.4292 71ZM87.2534 69.152C87.2534 70.356 88.0934 71.168 89.2974 71.168C90.1094 71.168 90.8094 70.762 91.4254 70.244H91.4674L91.5934 71H92.9094V66.926C92.9094 65.008 92.0694 63.958 90.3474 63.958C89.2554 63.958 88.2894 64.378 87.5334 64.854L88.1214 65.932C88.7234 65.568 89.3674 65.26 90.0534 65.26C90.9774 65.26 91.2854 65.876 91.2994 66.604C88.4854 66.912 87.2534 67.682 87.2534 69.152ZM88.8214 69.026C88.8214 68.34 89.4374 67.85 91.2994 67.612V69.152C90.7954 69.628 90.3614 69.908 89.8014 69.908C89.2274 69.908 88.8214 69.642 88.8214 69.026ZM95.6875 62.922C96.2615 62.922 96.6815 62.544 96.6815 62.012C96.6815 61.466 96.2615 61.088 95.6875 61.088C95.1135 61.088 94.6935 61.466 94.6935 62.012C94.6935 62.544 95.1135 62.922 95.6875 62.922ZM94.8755 71H96.4855V64.126H94.8755V71ZM98.5396 69.236C98.5396 70.426 98.9596 71.168 100.108 71.168C100.486 71.168 100.766 71.112 100.962 71.028L100.752 69.824C100.626 69.852 100.57 69.852 100.5 69.852C100.332 69.852 100.15 69.712 100.15 69.32V61.116H98.5396V69.236ZM102.046 69.152C102.046 70.356 102.886 71.168 104.09 71.168C104.902 71.168 105.602 70.762 106.218 70.244H106.26L106.386 71H107.702V66.926C107.702 65.008 106.862 63.958 105.14 63.958C104.048 63.958 103.082 64.378 102.326 64.854L102.914 65.932C103.516 65.568 104.16 65.26 104.846 65.26C105.77 65.26 106.078 65.876 106.092 66.604C103.278 66.912 102.046 67.682 102.046 69.152ZM103.614 69.026C103.614 68.34 104.23 67.85 106.092 67.612V69.152C105.588 69.628 105.154 69.908 104.594 69.908C104.02 69.908 103.614 69.642 103.614 69.026ZM109.668 71H110.942L111.082 70.3H111.124C111.698 70.86 112.37 71.168 113 71.168C114.526 71.168 115.94 69.81 115.94 67.444C115.94 65.33 114.946 63.958 113.224 63.958C112.524 63.958 111.81 64.308 111.236 64.812L111.278 63.664V61.116H109.668V71ZM111.278 69.264V66.058C111.81 65.54 112.286 65.288 112.79 65.288C113.826 65.288 114.274 66.1 114.274 67.472C114.274 69.026 113.574 69.838 112.664 69.838C112.258 69.838 111.768 69.684 111.278 69.264ZM117.571 69.236C117.571 70.426 117.991 71.168 119.139 71.168C119.517 71.168 119.797 71.112 119.993 71.028L119.783 69.824C119.657 69.852 119.601 69.852 119.531 69.852C119.363 69.852 119.181 69.712 119.181 69.32V61.116H117.571V69.236ZM120.924 67.57C120.924 69.838 122.408 71.168 124.312 71.168C125.18 71.168 126.006 70.86 126.664 70.426L126.118 69.418C125.614 69.74 125.11 69.922 124.522 69.922C123.416 69.922 122.632 69.222 122.492 67.976H126.86C126.902 67.808 126.93 67.528 126.93 67.22C126.93 65.302 125.95 63.958 124.088 63.958C122.478 63.958 120.924 65.33 120.924 67.57ZM122.478 66.954C122.618 65.806 123.318 65.204 124.13 65.204C125.068 65.204 125.53 65.862 125.53 66.954H122.478ZM132.15 62.922C132.724 62.922 133.144 62.544 133.144 62.012C133.144 61.466 132.724 61.088 132.15 61.088C131.576 61.088 131.156 61.466 131.156 62.012C131.156 62.544 131.576 62.922 132.15 62.922ZM131.338 71H132.948V64.126H131.338V71ZM135.002 71H136.612V66.198C137.186 65.638 137.578 65.344 138.18 65.344C138.936 65.344 139.258 65.764 139.258 66.898V71H140.868V66.688C140.868 64.952 140.224 63.958 138.754 63.958C137.816 63.958 137.116 64.448 136.5 65.05H136.444L136.332 64.126H135.002V71ZM145.946 68.676C145.946 70.16 146.534 71.168 148.13 71.168C148.676 71.168 149.152 71.042 149.53 70.916L149.25 69.726C149.054 69.81 148.774 69.88 148.536 69.88C147.878 69.88 147.57 69.488 147.57 68.676V65.4H149.32V64.126H147.57V62.25H146.226L146.03 64.126L144.966 64.196V65.4H145.946V68.676ZM150.766 71H152.376V66.198C152.95 65.638 153.342 65.344 153.944 65.344C154.7 65.344 155.022 65.764 155.022 66.898V71H156.632V66.688C156.632 64.952 155.988 63.958 154.518 63.958C153.58 63.958 152.894 64.448 152.32 64.994L152.376 63.664V61.116H150.766V71ZM158.125 67.57C158.125 69.838 159.609 71.168 161.513 71.168C162.381 71.168 163.207 70.86 163.865 70.426L163.319 69.418C162.815 69.74 162.311 69.922 161.723 69.922C160.617 69.922 159.833 69.222 159.693 67.976H164.061C164.103 67.808 164.131 67.528 164.131 67.22C164.131 65.302 163.151 63.958 161.289 63.958C159.679 63.958 158.125 65.33 158.125 67.57ZM159.679 66.954C159.819 65.806 160.519 65.204 161.331 65.204C162.269 65.204 162.731 65.862 162.731 66.954H159.679ZM168.54 71H170.15V66.198C170.682 65.624 171.172 65.344 171.592 65.344C172.32 65.344 172.656 65.764 172.656 66.898V71H174.266V66.198C174.798 65.624 175.274 65.344 175.708 65.344C176.422 65.344 176.758 65.764 176.758 66.898V71H178.382V66.688C178.382 64.952 177.71 63.958 176.254 63.958C175.386 63.958 174.7 64.49 174.042 65.19C173.72 64.42 173.146 63.958 172.138 63.958C171.284 63.958 170.612 64.448 170.038 65.064H169.982L169.87 64.126H168.54V71ZM180.044 69.152C180.044 70.356 180.884 71.168 182.088 71.168C182.9 71.168 183.6 70.762 184.216 70.244H184.258L184.384 71H185.7V66.926C185.7 65.008 184.86 63.958 183.138 63.958C182.046 63.958 181.08 64.378 180.324 64.854L180.912 65.932C181.514 65.568 182.158 65.26 182.844 65.26C183.768 65.26 184.076 65.876 184.09 66.604C181.276 66.912 180.044 67.682 180.044 69.152ZM181.612 69.026C181.612 68.34 182.228 67.85 184.09 67.612V69.152C183.586 69.628 183.152 69.908 182.592 69.908C182.018 69.908 181.612 69.642 181.612 69.026ZM188.479 62.922C189.053 62.922 189.473 62.544 189.473 62.012C189.473 61.466 189.053 61.088 188.479 61.088C187.905 61.088 187.485 61.466 187.485 62.012C187.485 62.544 187.905 62.922 188.479 62.922ZM187.667 71H189.277V64.126H187.667V71ZM191.331 71H192.941V66.198C193.515 65.638 193.907 65.344 194.509 65.344C195.265 65.344 195.587 65.764 195.587 66.898V71H197.197V66.688C197.197 64.952 196.553 63.958 195.083 63.958C194.145 63.958 193.445 64.448 192.829 65.05H192.773L192.661 64.126H191.331V71ZM202.036 71H203.646V66.198C204.178 65.624 204.668 65.344 205.088 65.344C205.816 65.344 206.152 65.764 206.152 66.898V71H207.762V66.198C208.294 65.624 208.77 65.344 209.204 65.344C209.918 65.344 210.254 65.764 210.254 66.898V71H211.878V66.688C211.878 64.952 211.206 63.958 209.75 63.958C208.882 63.958 208.196 64.49 207.538 65.19C207.216 64.42 206.642 63.958 205.634 63.958C204.78 63.958 204.108 64.448 203.534 65.064H203.478L203.366 64.126H202.036V71ZM213.387 67.57C213.387 69.838 214.87 71.168 216.775 71.168C217.643 71.168 218.469 70.86 219.127 70.426L218.581 69.418C218.077 69.74 217.573 69.922 216.985 69.922C215.879 69.922 215.095 69.222 214.955 67.976H219.323C219.365 67.808 219.393 67.528 219.393 67.22C219.393 65.302 218.413 63.958 216.551 63.958C214.941 63.958 213.387 65.33 213.387 67.57ZM214.941 66.954C215.081 65.806 215.781 65.204 216.593 65.204C217.531 65.204 217.993 65.862 217.993 66.954H214.941ZM220.93 71H222.54V66.198C223.114 65.638 223.506 65.344 224.108 65.344C224.864 65.344 225.186 65.764 225.186 66.898V71H226.796V66.688C226.796 64.952 226.152 63.958 224.682 63.958C223.744 63.958 223.044 64.448 222.428 65.05H222.372L222.26 64.126H220.93V71ZM228.694 68.438C228.694 70.174 229.338 71.168 230.808 71.168C231.746 71.168 232.418 70.706 233.02 69.992H233.062L233.188 71H234.504V64.126H232.894V68.83C232.376 69.502 231.97 69.782 231.368 69.782C230.626 69.782 230.304 69.362 230.304 68.228V64.126H228.694V68.438ZM236.123 73.044L237.131 73.492C238.293 71.588 238.979 69.572 238.979 67.108C238.979 64.644 238.293 62.628 237.131 60.724L236.123 61.172C237.173 62.964 237.663 65.05 237.663 67.108C237.663 69.166 237.173 71.252 236.123 73.044Z" fill="#362A96"/>
<g opacity="0.8">
<path d="M34.0004 57H38.0004M40.0004 48C39.3337 48.6667 39.0004 50 39.0004 52V53H33.0004V52C33.0004 50 32.667 48.6667 32.0004 48C29.6743 45.674 29.4146 42.1005 31.7577 39.7574C34.1009 37.4142 37.8999 37.4142 40.243 39.7574C42.5862 42.1005 42.4072 45.5932 40.0004 48Z" stroke="#362A96" stroke-width="2" stroke-linecap="round"/>
</g>
</svg>
