<svg width="16" height="16" viewBox="0 0 16 16" fill="none" xmlns="http://www.w3.org/2000/svg">
<circle cx="8" cy="8" r="7.5" stroke="#6B6B6F"/>
<path d="M7.3104 9.39031H8.4416C8.2848 7.94551 10.032 7.44151 10.032 6.01911C10.032 4.79831 9.1696 4.15991 7.96 4.15991C7.1424 4.15991 6.4816 4.56311 6 5.13431L6.7168 5.79511C7.0416 5.43671 7.4112 5.21271 7.8704 5.21271C8.4416 5.21271 8.7776 5.57111 8.7776 6.10871C8.7776 7.11671 7.0752 7.75511 7.3104 9.39031ZM7.0528 11.0591C7.0528 11.5631 7.4112 11.9327 7.8816 11.9327C8.352 11.9327 8.7216 11.5631 8.7216 11.0591C8.7216 10.5551 8.352 10.1855 7.8816 10.1855C7.4112 10.1855 7.0528 10.5551 7.0528 11.0591Z" fill="#6B6B6F"/>
</svg>
