<svg width="112" height="18" viewBox="0 0 112 18" fill="none" xmlns="http://www.w3.org/2000/svg">
<path d="M111.117 11.2371C111.139 12.6917 110.496 14.0619 109.34 15.2411C109.254 15.3296 109.206 15.3911 109.122 15.4766C109.053 15.5401 108.95 15.6385 108.877 15.6995C108.805 15.7605 108.731 15.821 108.656 15.8785C108.567 15.9545 108.477 16.0284 108.388 16.0964C108.257 16.1964 108.124 16.2904 107.989 16.3834C106.497 17.3986 104.671 17.978 102.888 17.9985C100.487 17.9998 98.1826 17.0606 96.4769 15.3855C94.7712 13.7104 93.8023 11.435 93.7812 9.0551C95.4369 11.5545 98.4502 11.3735 101.691 11.3735C105.277 11.3735 108.226 11.1876 109.768 8.23779C110.186 8.58606 110.525 9.01876 110.761 9.50699C110.812 9.62328 110.857 9.74207 110.896 9.86291C110.935 9.97838 110.969 10.0759 110.997 10.2003C111.025 10.3248 111.041 10.4378 111.059 10.5542C111.077 10.6707 111.089 10.7857 111.097 10.8992C111.106 11.0126 111.115 11.1251 111.117 11.2371Z" fill="url(#paint0_linear)"/>
<path d="M108.266 2.30223C107.709 2.11043 107.142 1.95037 106.567 1.82284L106.522 1.81435C104.89 1.50392 103.225 1.5859 101.64 2.19575C101.524 2.24374 101.409 2.29506 101.296 2.34972C99.9434 2.99956 98.847 4.1138 98.3412 5.72392C98.3074 5.84439 98.2781 5.96436 98.2524 6.08433C98.086 6.87264 98.089 7.69145 98.2963 8.44277C97.927 7.0876 97.8759 5.66657 98.1469 4.28877C98.4179 2.91098 99.0038 1.61306 99.8597 0.494659C100.017 0.436268 100.178 0.386209 100.341 0.344695C100.341 0.341195 100.566 0.284209 100.568 0.28121L100.753 0.23822C101.369 0.0986975 101.997 0.0198327 102.629 0.00277594C104.539 -0.0502115 106.773 0.65762 108.429 1.93332C108.757 2.18439 109.063 2.46194 109.345 2.76312L109.266 2.72313L109.226 2.70314C109 2.58962 108.767 2.48914 108.529 2.40221C108.514 2.39821 108.283 2.30823 108.266 2.30223Z" fill="url(#paint1_linear)"/>
<path d="M105.881 7.26352C105.754 7.28232 105.628 7.30802 105.504 7.3405C103.689 7.81789 102.73 9.68444 101.057 10.2438C100.947 10.2691 100.835 10.2883 100.722 10.3013C100.162 10.3608 99.5991 10.2423 99.1447 9.89739C99.0196 9.80206 98.9062 9.6925 98.8068 9.57097C98.5778 9.22388 98.4056 8.84311 98.2965 8.44274C97.9271 7.08757 97.876 5.66654 98.147 4.28874C98.4181 2.91095 99.004 1.61303 99.8598 0.494629C99.1977 0.716076 98.5718 0.966017 97.9913 1.31993C96.1738 2.44267 94.8333 4.17475 94.1873 6.25126C93.9155 7.13234 93.7781 8.04876 93.7798 8.97011C93.7798 8.99911 93.7798 9.0261 93.7798 9.05509C94.6128 10.3164 95.7465 11.3548 97.0807 12.0784C98.4149 12.8021 99.9085 13.1887 101.429 13.2041C101.463 13.2041 101.497 13.2041 101.53 13.2041C103.231 13.2046 104.898 12.7414 106.351 11.8653C107.804 10.9892 108.985 9.73388 109.766 8.23679C108.729 7.36299 107.256 7.01858 105.881 7.26352Z" fill="url(#paint2_linear)"/>
<path d="M59.2264 7.67667C59.0835 7.6773 58.9458 7.6237 58.8409 7.5267C58.7869 7.47815 58.7441 7.41835 58.7156 7.35151C58.6871 7.28467 58.6736 7.2124 58.676 7.13977C58.6744 7.05404 58.6684 6.96844 58.658 6.88332C58.6325 6.72436 58.5965 6.5024 58.547 6.22045C58.4029 5.57368 58.0778 4.98124 57.6097 4.51229C56.8988 3.78943 55.87 3.428 54.5233 3.428C53.5555 3.428 52.7926 3.59947 52.2347 3.9424C51.6949 4.26742 51.2585 4.73915 50.9765 5.30263C50.6854 5.89908 50.505 6.54339 50.4441 7.20426C50.3703 7.90922 50.3333 8.61754 50.3331 9.32634C50.3331 9.5723 50.3331 9.84674 50.3436 10.1527C50.3541 10.4586 50.3706 10.7811 50.4081 11.1185C50.4455 11.4609 50.5 11.8013 50.5716 12.1383C50.6451 12.4782 50.75 12.8106 50.885 13.1311C51.4969 14.5308 52.7096 15.2307 54.5233 15.2307C56.2869 15.2307 57.4997 14.6058 58.1616 13.3561C58.2818 13.1328 58.3822 12.8995 58.4615 12.6587C58.5248 12.4567 58.5749 12.2508 58.6115 12.0423C58.6443 11.8437 58.6658 11.6434 58.676 11.4424C58.6749 11.3728 58.6891 11.3039 58.7176 11.2404C58.7461 11.1769 58.7882 11.1204 58.8409 11.075C58.9459 10.9781 59.0836 10.9246 59.2264 10.925C59.2944 10.9234 59.362 10.9356 59.4251 10.9608C59.4883 10.9861 59.5457 11.0239 59.5938 11.072C59.6419 11.1201 59.6797 11.1775 59.705 11.2406C59.7302 11.3038 59.7424 11.3714 59.7408 11.4394C59.7408 11.4514 59.7408 11.5294 59.7318 11.6689C59.7203 11.8544 59.6958 12.0388 59.6583 12.2208C59.6148 12.4472 59.5518 12.7052 59.4663 12.9916C59.3737 13.2942 59.2506 13.5867 59.0989 13.8645C58.746 14.5305 58.2255 15.0929 57.5887 15.4961C57.1842 15.7514 56.7447 15.9464 56.2839 16.075C55.7094 16.2314 55.1156 16.3056 54.5203 16.2955C53.3075 16.2955 52.3077 16.038 51.5209 15.5231C50.824 15.017 50.2692 14.3399 49.9102 13.557C49.755 13.1922 49.6345 12.8136 49.5503 12.4262C49.4666 12.0505 49.4031 11.6705 49.3598 11.288C49.3178 10.915 49.2938 10.5596 49.2878 10.2217C49.2818 9.88373 49.2788 9.58679 49.2788 9.33084C49.2788 9.0489 49.2818 8.73646 49.2878 8.39353C49.2938 8.0506 49.3148 7.69566 49.3508 7.32874C49.3881 6.95142 49.4487 6.57678 49.5323 6.20696C49.6159 5.82864 49.7364 5.45944 49.8922 5.10467C50.07 4.7009 50.3032 4.32385 50.5851 3.98439C50.8541 3.6654 51.1619 3.38126 51.5014 3.13856C52.2862 2.62466 53.291 2.36721 54.5158 2.36621C56.1565 2.36621 57.4427 2.83212 58.3745 3.76394C58.6875 4.08211 58.9477 4.44813 59.1454 4.84822C59.3151 5.18893 59.4508 5.5456 59.5503 5.91301C59.6236 6.18728 59.6737 6.46721 59.7003 6.74985C59.7183 6.97631 59.7273 7.10828 59.7273 7.14427V7.16227C59.7293 7.23038 59.7175 7.2982 59.6923 7.36155C59.6672 7.4249 59.6294 7.48244 59.5812 7.53063C59.533 7.57882 59.4755 7.61663 59.4121 7.64175C59.3488 7.66686 59.281 7.67875 59.2129 7.67667H59.2264Z" fill="#1F8E4E"/>
<path d="M69.4768 3.50576H60.7665C60.6273 3.50426 60.4941 3.44891 60.3948 3.35133C60.2956 3.25374 60.238 3.12151 60.2341 2.98236C60.2321 2.91181 60.2443 2.84158 60.2701 2.77587C60.2959 2.71016 60.3346 2.65032 60.3841 2.59994C60.4324 2.54884 60.4908 2.50833 60.5556 2.48097C60.6204 2.45361 60.6902 2.43999 60.7605 2.44097H69.4708C69.5411 2.43999 69.6109 2.45361 69.6757 2.48097C69.7405 2.50833 69.7989 2.54884 69.8472 2.59994C69.8967 2.65032 69.9354 2.71016 69.9612 2.77587C69.987 2.84158 69.9992 2.91181 69.9972 2.98236C69.9933 3.12151 69.9357 3.25374 69.8365 3.35133C69.7372 3.44891 69.604 3.50426 69.4648 3.50576H69.4768ZM65.0947 16.2218C65.0238 16.2246 64.9531 16.212 64.8876 16.1848C64.8221 16.1576 64.7633 16.1165 64.7152 16.0643C64.6177 15.9634 64.5638 15.8282 64.5653 15.6879V4.79251C64.5663 4.65799 64.6202 4.52926 64.7152 4.43408C64.7641 4.38347 64.8233 4.3439 64.8887 4.31804C64.9542 4.29217 65.0244 4.2806 65.0947 4.28411C65.1634 4.28261 65.2316 4.29514 65.2953 4.32092C65.359 4.34671 65.4168 4.38521 65.4651 4.43408C65.5129 4.48067 65.5508 4.53642 65.5766 4.59801C65.6024 4.6596 65.6154 4.72575 65.6151 4.79251V15.6879C65.6167 15.7575 65.6042 15.8267 65.5785 15.8914C65.5527 15.9561 65.5141 16.0149 65.4651 16.0643C65.4176 16.1147 65.3601 16.1548 65.2964 16.1819C65.2326 16.209 65.1639 16.2226 65.0947 16.2218Z" fill="#1F8E4E"/>
<path d="M81.686 15.7078C81.6773 15.846 81.6167 15.9759 81.5163 16.0713C81.4159 16.1667 81.2831 16.2206 81.1447 16.2222C81.0727 16.2255 81.0012 16.2103 80.9368 16.178C80.8725 16.1457 80.8175 16.0974 80.7772 16.0377L76.992 11.9765H72.5633V15.7078C72.563 15.7753 72.5484 15.842 72.5204 15.9036C72.4925 15.9651 72.452 16.02 72.4014 16.0647C72.3546 16.1137 72.2986 16.1529 72.2365 16.1799C72.1745 16.207 72.1076 16.2213 72.0399 16.2222C71.9706 16.2231 71.9019 16.2095 71.8382 16.1824C71.7744 16.1553 71.7169 16.1152 71.6695 16.0647C71.6217 16.0184 71.5838 15.9629 71.5581 15.9016C71.5323 15.8403 71.5192 15.7743 71.5195 15.7078V2.9738C71.5195 2.83286 71.5754 2.69767 71.6749 2.59787C71.7745 2.49807 71.9095 2.4418 72.0504 2.44141H76.5256C76.563 2.44141 76.6965 2.4504 76.929 2.4684C77.22 2.495 77.5084 2.54516 77.7913 2.61837C78.1692 2.72043 78.5356 2.86114 78.8846 3.03829C79.2972 3.24423 79.6748 3.51399 80.0034 3.83763C80.8462 4.67047 81.2676 5.79125 81.2676 7.19997C81.2874 8.0112 81.1399 8.81781 80.8342 9.56951C80.589 10.1274 80.2221 10.6234 79.7604 11.0212C79.7068 11.0677 79.6439 11.1025 79.576 11.1231C79.508 11.1438 79.4365 11.1499 79.366 11.1412C79.2295 11.1257 79.1024 11.0637 79.0061 10.9657C78.9587 10.9147 78.9241 10.8532 78.905 10.7862C78.886 10.7192 78.8831 10.6486 78.8966 10.5803C78.9169 10.4412 78.9816 10.3123 79.0811 10.2129C79.8399 9.577 80.2193 8.5727 80.2193 7.19997C80.2193 6.07219 79.9064 5.19637 79.2805 4.57249C79.0195 4.3052 78.7101 4.08992 78.3687 3.93811C78.0914 3.81623 77.8051 3.71595 77.5124 3.63817C77.2124 3.58868 76.9785 3.55269 76.794 3.52869C76.7025 3.51674 76.6103 3.51023 76.5181 3.5092H72.5633V10.9117H77.2484C77.3177 10.9125 77.3861 10.9275 77.4493 10.9559C77.5125 10.9843 77.5692 11.0254 77.6158 11.0767L81.5481 15.3404C81.5966 15.3878 81.634 15.4453 81.6579 15.5088C81.6817 15.5722 81.6913 15.6402 81.686 15.7078Z" fill="#1F8E4E"/>
<path d="M83.595 14.6233C83.4547 14.625 83.3193 14.5711 83.2186 14.4733C83.1692 14.426 83.1304 14.3689 83.1045 14.3056C83.0787 14.2423 83.0665 14.1742 83.0686 14.1059V2.97359C83.0686 2.83239 83.1247 2.69697 83.2246 2.59713C83.3244 2.49728 83.4598 2.44119 83.601 2.44119C83.6696 2.4389 83.7379 2.45107 83.8015 2.47691C83.865 2.50275 83.9224 2.54167 83.97 2.59116C84.0678 2.69187 84.1217 2.82722 84.1199 2.96759V14.1089C84.1216 14.177 84.1094 14.2448 84.084 14.308C84.0586 14.3713 84.0207 14.4287 83.9724 14.4769C83.9242 14.525 83.8666 14.5628 83.8033 14.5879C83.74 14.6131 83.6722 14.6251 83.604 14.6233H83.595ZM90.5822 16.222H83.595C83.5247 16.2228 83.455 16.2091 83.3903 16.1817C83.3255 16.1544 83.2671 16.114 83.2186 16.063C83.1693 16.0123 83.1306 15.9521 83.1049 15.8862C83.0791 15.8203 83.0668 15.7499 83.0686 15.6791C83.0663 15.6098 83.0784 15.5409 83.1042 15.4766C83.13 15.4123 83.169 15.354 83.2186 15.3057C83.2681 15.2568 83.327 15.2183 83.3916 15.1925C83.4563 15.1668 83.5255 15.1542 83.595 15.1557H90.5822C90.7194 15.1563 90.8511 15.2101 90.9496 15.3057C91.003 15.3519 91.0457 15.4093 91.0744 15.4738C91.1032 15.5384 91.1174 15.6084 91.1161 15.6791C91.1169 15.7512 91.1024 15.8226 91.0738 15.8888C91.0451 15.955 91.0028 16.0143 90.9496 16.063C90.9018 16.1124 90.8448 16.1519 90.7817 16.1791C90.7187 16.2064 90.6509 16.221 90.5822 16.222Z" fill="#1F8E4E"/>
<path d="M9.2429 3.50625H0.532606C0.461276 3.50807 0.39036 3.49486 0.324473 3.46747C0.258585 3.44008 0.1992 3.39913 0.150181 3.34728C0.101982 3.29972 0.0638601 3.24295 0.038093 3.18033C0.0123259 3.11772 -0.000558085 3.05055 0.000210373 2.98285C-0.00178766 2.9123 0.0104638 2.84207 0.036232 2.77636C0.0620002 2.71065 0.100756 2.65081 0.150181 2.60042C0.198516 2.54933 0.256927 2.50882 0.32172 2.48146C0.386514 2.4541 0.45628 2.44047 0.526607 2.44146H9.2429C9.31322 2.44047 9.38299 2.4541 9.44778 2.48146C9.51258 2.50882 9.57099 2.54933 9.61932 2.60042C9.66875 2.65081 9.7075 2.71065 9.73327 2.77636C9.75904 2.84207 9.77129 2.9123 9.76929 2.98285C9.76542 3.12199 9.70781 3.25423 9.60855 3.35182C9.50929 3.4494 9.37609 3.50475 9.2369 3.50625H9.2429ZM4.86076 16.2223C4.78988 16.2251 4.71922 16.2125 4.6537 16.1853C4.58818 16.1581 4.52936 16.117 4.48133 16.0648C4.43284 16.015 4.39464 15.9561 4.36891 15.8915C4.34317 15.8269 4.33042 15.7579 4.33136 15.6884V4.79299C4.33156 4.72632 4.34491 4.66035 4.37064 4.59884C4.39637 4.53733 4.43399 4.48151 4.48133 4.43456C4.53022 4.38396 4.58937 4.34439 4.65482 4.31852C4.72026 4.29266 4.79048 4.28109 4.86076 4.28459C4.92925 4.28295 4.99735 4.29541 5.06082 4.32121C5.12428 4.34701 5.18177 4.3856 5.22968 4.43456C5.27771 4.481 5.31577 4.53672 5.34156 4.59835C5.36734 4.65997 5.3803 4.7262 5.37965 4.79299V15.6884C5.38153 15.758 5.3692 15.8273 5.34342 15.892C5.31763 15.9567 5.27894 16.0155 5.22968 16.0648C5.18253 16.1153 5.12536 16.1553 5.06183 16.1824C4.99831 16.2096 4.92982 16.2231 4.86076 16.2223Z" fill="#232326"/>
<path d="M15.1744 16.2762C13.4107 16.2762 12.1 15.7373 11.2421 14.6595C10.3113 13.5457 9.84591 11.7695 9.84591 9.33101C9.843 8.76056 9.87053 8.19037 9.92839 7.62285C9.97859 7.14111 10.0552 6.66248 10.1579 6.18913C10.3658 5.25731 10.6907 4.52846 11.1327 4.00256C11.593 3.44671 12.1869 3.01686 12.8588 2.75331C13.4727 2.50935 14.2445 2.38688 15.1744 2.38588C15.5989 2.38332 16.0228 2.41693 16.4416 2.48636C16.8118 2.5468 17.1711 2.66151 17.5079 2.82679C18.192 3.10484 18.7887 3.5617 19.2356 4.14953C20.0554 5.27731 20.4658 7.00447 20.4668 9.33101C20.4774 10.3445 20.3723 11.3558 20.1534 12.3454C20.0506 12.7576 19.9095 13.1593 19.732 13.5452C19.5671 13.9012 19.3569 14.2344 19.1066 14.5365C18.2248 15.6963 16.914 16.2762 15.1744 16.2762ZM15.1744 3.45217C13.6427 3.45217 12.5649 3.85609 11.941 4.66393C11.2411 5.58375 10.8912 7.13944 10.8912 9.33101C10.8735 10.2789 10.9697 11.2255 11.1776 12.1505C11.3267 12.8196 11.6115 13.451 12.0145 14.0056C12.6634 14.8144 13.7166 15.2189 15.1744 15.2189C16.5821 15.2189 17.6294 14.7654 18.3162 13.8586C18.705 13.295 18.9825 12.6623 19.1336 11.9945C19.3369 11.1242 19.4326 10.2322 19.4185 9.33851C19.4185 7.26892 19.0821 5.76222 18.4092 4.8184C17.7344 3.90758 16.6561 3.45217 15.1744 3.45217Z" fill="#232326"/>
<path d="M29.426 3.50627H20.7157C20.5765 3.50477 20.4433 3.44942 20.3441 3.35184C20.2448 3.25425 20.1872 3.12201 20.1833 2.98287C20.1813 2.91232 20.1936 2.84209 20.2193 2.77638C20.2451 2.71067 20.2839 2.65083 20.3333 2.60044C20.3815 2.5492 20.4399 2.5086 20.5047 2.48122C20.5695 2.45385 20.6394 2.44031 20.7097 2.44148H29.42C29.4903 2.44049 29.5601 2.45411 29.6249 2.48148C29.6897 2.50884 29.7481 2.54935 29.7964 2.60044C29.8459 2.65083 29.8846 2.71067 29.9104 2.77638C29.9362 2.84209 29.9484 2.91232 29.9464 2.98287C29.9425 3.12201 29.8849 3.25425 29.7857 3.35184C29.6864 3.44942 29.5532 3.50477 29.414 3.50627H29.426ZM25.0454 16.2223C24.9745 16.2251 24.9038 16.2125 24.8383 16.1853C24.7728 16.1581 24.714 16.117 24.6659 16.0648C24.6174 16.015 24.5792 15.9561 24.5535 15.8915C24.5278 15.8269 24.515 15.7579 24.516 15.6884V4.79301C24.5162 4.72634 24.5295 4.66036 24.5552 4.59886C24.581 4.53735 24.6186 4.48153 24.6659 4.43458C24.7148 4.38398 24.774 4.34441 24.8394 4.31854C24.9049 4.29268 24.9751 4.28111 25.0454 4.28461C25.1139 4.28297 25.182 4.29543 25.2454 4.32123C25.3089 4.34703 25.3664 4.38562 25.4143 4.43458C25.4623 4.48102 25.5004 4.53674 25.5262 4.59836C25.552 4.65999 25.5649 4.72622 25.5643 4.79301V15.6884C25.5661 15.758 25.5538 15.8273 25.528 15.892C25.5022 15.9567 25.4635 16.0155 25.4143 16.0648C25.3671 16.1153 25.31 16.1553 25.2464 16.1825C25.1829 16.2096 25.1144 16.2231 25.0454 16.2223Z" fill="#232326"/>
<path d="M39.3572 15.4872C39.3868 15.5503 39.4021 15.6191 39.4021 15.6889C39.4021 15.7586 39.3868 15.8274 39.3572 15.8906C39.2997 16.0255 39.1922 16.133 39.0573 16.1905C38.9959 16.2208 38.9287 16.2373 38.8603 16.2388C38.7919 16.2404 38.724 16.227 38.6614 16.1995C38.5329 16.1453 38.4307 16.043 38.3764 15.9146L33.6613 4.35184L28.9013 15.9086C28.8561 16.0017 28.7858 16.0803 28.6984 16.1357C28.611 16.1911 28.5098 16.221 28.4064 16.222C28.3368 16.2257 28.2675 16.2129 28.2039 16.1845C28.0689 16.127 27.9615 16.0195 27.9039 15.8846C27.8736 15.8217 27.8579 15.7527 27.8579 15.6829C27.8579 15.613 27.8736 15.5441 27.9039 15.4812L33.1769 2.74715C33.2177 2.65447 33.2846 2.57567 33.3694 2.52034C33.4542 2.46501 33.5533 2.43555 33.6546 2.43555C33.7558 2.43555 33.8549 2.46501 33.9397 2.52034C34.0246 2.57567 34.0914 2.65447 34.1322 2.74715L39.3572 15.4872ZM35.5165 12.5102H31.7672C31.6307 12.503 31.5022 12.4437 31.4081 12.3445C31.314 12.2453 31.2616 12.1138 31.2616 11.9771C31.2616 11.8404 31.314 11.7089 31.4081 11.6097C31.5022 11.5105 31.6307 11.4512 31.7672 11.4439H35.5165C35.653 11.4512 35.7815 11.5105 35.8756 11.6097C35.9696 11.7089 36.0221 11.8404 36.0221 11.9771C36.0221 12.1138 35.9696 12.2453 35.8756 12.3445C35.7815 12.4437 35.653 12.503 35.5165 12.5102Z" fill="#232326"/>
<path d="M41.413 14.6233C41.2726 14.625 41.1372 14.5711 41.0365 14.4733C40.9856 14.4268 40.9451 14.37 40.918 14.3066C40.8908 14.2433 40.8775 14.1748 40.8791 14.1059V2.97356C40.8798 2.83234 40.9364 2.69716 41.0364 2.59744C41.1364 2.49773 41.2717 2.44156 41.413 2.44116C41.4813 2.43899 41.5493 2.45122 41.6126 2.47706C41.6759 2.5029 41.7331 2.54176 41.7804 2.59113C41.8782 2.69185 41.9321 2.82719 41.9303 2.96756V14.1089C41.932 14.1769 41.9198 14.2445 41.8945 14.3077C41.8693 14.3708 41.8314 14.4282 41.7833 14.4763C41.7352 14.5244 41.6779 14.5622 41.6147 14.5875C41.5516 14.6127 41.4839 14.6249 41.4159 14.6233H41.413ZM48.3956 16.222H41.413C41.3426 16.2228 41.2729 16.2091 41.2082 16.1817C41.1434 16.1544 41.085 16.1139 41.0365 16.063C40.9856 16.013 40.9454 15.9532 40.9184 15.8872C40.8913 15.8212 40.8779 15.7504 40.8791 15.6791C40.8774 15.6092 40.8905 15.5398 40.9177 15.4754C40.9448 15.4111 40.9853 15.3532 41.0365 15.3056C41.086 15.2567 41.1449 15.2183 41.2095 15.1925C41.2742 15.1668 41.3434 15.1542 41.413 15.1557H48.3956C48.5324 15.1565 48.6635 15.2103 48.7615 15.3056C48.815 15.3519 48.8576 15.4093 48.8864 15.4738C48.9151 15.5383 48.9293 15.6084 48.928 15.6791C48.9288 15.7512 48.9144 15.8226 48.8857 15.8888C48.857 15.9549 48.8147 16.0143 48.7615 16.063C48.714 16.1123 48.6572 16.1517 48.5944 16.1789C48.5316 16.2062 48.464 16.2208 48.3956 16.222Z" fill="#232326"/>
<defs>
<linearGradient id="paint0_linear" x1="102.449" y1="8.53372" x2="102.449" y2="17.937" gradientUnits="userSpaceOnUse">
<stop stop-color="#125E4D"/>
<stop offset="0.5" stop-color="#2D9F5A"/>
<stop offset="1" stop-color="#43BE71"/>
</linearGradient>
<linearGradient id="paint1_linear" x1="99.6912" y1="4.26026" x2="109.713" y2="3.77134" gradientUnits="userSpaceOnUse">
<stop stop-color="#125E4D"/>
<stop offset="0.5" stop-color="#2D9F5A"/>
<stop offset="1" stop-color="#43BE71"/>
</linearGradient>
<linearGradient id="paint2_linear" x1="98.6994" y1="13.1989" x2="105.321" y2="0.421462" gradientUnits="userSpaceOnUse">
<stop stop-color="#125E4D"/>
<stop offset="0.463542" stop-color="#2D9F5A"/>
<stop offset="1" stop-color="#43BE71"/>
</linearGradient>
</defs>
</svg>
