<svg width="32" height="32" viewBox="0 0 32 32" fill="none" xmlns="http://www.w3.org/2000/svg">
<path d="M31.4104 19.9788C31.4499 22.565 30.3067 25.0011 28.2516 27.0977C28.0991 27.255 28.014 27.3643 27.8642 27.5163C27.7414 27.6291 27.5585 27.8042 27.4294 27.9127C27.3002 28.0211 27.1684 28.1286 27.0357 28.2308C26.8779 28.3659 26.7165 28.4975 26.5587 28.6183C26.3256 28.7961 26.0898 28.9632 25.8495 29.1285C23.1963 30.9335 19.9514 31.9636 16.7809 32C12.5118 32.0023 8.41477 30.3325 5.38209 27.3543C2.34941 24.3761 0.626787 20.3307 0.589417 16.0994C3.53308 20.5431 8.89048 20.2214 14.6532 20.2214C21.0274 20.2214 26.2709 19.8908 29.0128 14.6462C29.7563 15.2654 30.3578 16.0347 30.7774 16.9028C30.8685 17.1095 30.9491 17.3207 31.0186 17.5356C31.0867 17.7409 31.1486 17.9142 31.1979 18.1355C31.2472 18.3568 31.2759 18.5576 31.3082 18.7647C31.3405 18.9718 31.362 19.1762 31.3764 19.378C31.3907 19.5797 31.4068 19.7797 31.4104 19.9788Z" fill="url(#paint0_linear)"/>
<path d="M26.3417 4.09319C25.352 3.75218 24.3434 3.46761 23.3209 3.24088L23.2411 3.22577C20.3405 2.67386 17.3798 2.81961 14.5626 3.90389C14.3552 3.98921 14.1513 4.08046 13.9511 4.17763C11.5454 5.333 9.59609 7.31403 8.69676 10.1767C8.63669 10.3909 8.58468 10.6042 8.53895 10.8175C8.24306 12.2191 8.24845 13.6748 8.61696 15.0106C7.96035 12.6012 7.86947 10.0747 8.35131 7.62512C8.83315 5.1755 9.87489 2.8679 11.3965 0.879467C11.677 0.775651 11.9628 0.686651 12.2528 0.612841C12.2528 0.60662 12.6518 0.505303 12.6554 0.499971L12.9854 0.423538C14.0803 0.175477 15.1973 0.0352611 16.32 0.00493542C19.7164 -0.0892723 23.6886 1.1692 26.6313 3.43729C27.2148 3.88369 27.76 4.37715 28.2614 4.91262L28.1197 4.84152L28.0498 4.80597C27.6475 4.60415 27.2337 4.42551 26.8107 4.27094C26.7829 4.26383 26.3722 4.10386 26.3417 4.09319Z" fill="url(#paint1_linear)"/>
<path d="M22.1015 12.914C21.8759 12.9475 21.6523 12.9932 21.4317 13.0509C18.2038 13.8997 16.5002 17.2182 13.5252 18.2128C13.3288 18.2577 13.13 18.2918 12.9298 18.315C11.9336 18.4207 10.933 18.2101 10.1251 17.5969C9.90266 17.4274 9.70103 17.2326 9.52438 17.0165C9.11723 16.3994 8.81099 15.7224 8.61698 15.0106C7.96037 12.6012 7.86949 10.0747 8.35133 7.6251C8.83316 5.17548 9.8749 2.86788 11.3966 0.879456C10.2193 1.27317 9.10654 1.71755 8.07451 2.34678C4.84303 4.34292 2.45977 7.42244 1.31118 11.1143C0.827915 12.6808 0.58372 14.3101 0.586697 15.9482C0.586697 15.9998 0.586697 16.0478 0.586697 16.0993C2.0677 18.3418 4.08339 20.188 6.4555 21.4746C8.8276 22.7612 11.483 23.4486 14.1869 23.4759C14.247 23.4759 14.307 23.4759 14.3662 23.4759C17.3894 23.4767 20.3546 22.6533 22.9372 21.0956C25.5199 19.538 27.6205 17.3061 29.0092 14.6444C27.1648 13.0909 24.5466 12.4785 22.1015 12.914Z" fill="url(#paint2_linear)"/>
<defs>
<linearGradient id="paint0_linear" x1="16.0008" y1="15.1724" x2="16.0008" y2="31.8907" gradientUnits="userSpaceOnUse">
<stop stop-color="#125E4D"/>
<stop offset="0.5" stop-color="#2D9F5A"/>
<stop offset="1" stop-color="#43BE71"/>
</linearGradient>
<linearGradient id="paint1_linear" x1="11.0971" y1="7.57444" x2="28.9152" y2="6.70516" gradientUnits="userSpaceOnUse">
<stop stop-color="#125E4D"/>
<stop offset="0.5" stop-color="#2D9F5A"/>
<stop offset="1" stop-color="#43BE71"/>
</linearGradient>
<linearGradient id="paint2_linear" x1="9.33334" y1="23.4666" x2="21.1061" y2="0.74936" gradientUnits="userSpaceOnUse">
<stop stop-color="#125E4D"/>
<stop offset="0.463542" stop-color="#2D9F5A"/>
<stop offset="1" stop-color="#43BE71"/>
</linearGradient>
</defs>
</svg>
